<?xml version="1.0" encoding="UTF-8" standalone="no"?>
<svg
   version="1.1"
   id="svg2"
   width="600"
   height="600"
   viewBox="0 0 600 600"
   sodipodi:docname="ls201808-01 copy.svg"
   inkscape:version="1.3 (0e150ed, 2023-07-21)"
   xmlns:inkscape="http://www.inkscape.org/namespaces/inkscape"
   xmlns:sodipodi="http://sodipodi.sourceforge.net/DTD/sodipodi-0.dtd"
   xmlns="http://www.w3.org/2000/svg"
   xmlns:svg="http://www.w3.org/2000/svg">
  <sodipodi:namedview
     id="namedview1"
     pagecolor="#ffffff"
     bordercolor="#666666"
     borderopacity="1.0"
     inkscape:showpageshadow="2"
     inkscape:pageopacity="0.0"
     inkscape:pagecheckerboard="0"
     inkscape:deskcolor="#d1d1d1"
     inkscape:zoom="0.65505721"
     inkscape:cx="360.27388"
     inkscape:cy="236.62055"
     inkscape:window-width="1512"
     inkscape:window-height="847"
     inkscape:window-x="1366"
     inkscape:window-y="38"
     inkscape:window-maximized="1"
     inkscape:current-layer="svg2" />
  <defs
     id="defs6">
    <clipPath
       clipPathUnits="userSpaceOnUse"
       id="clipPath1">
      <g
         id="g2"
         transform="matrix(0.75000019,0,0,-0.75000019,-489.32684,411.51296)">
        <path
           d="M -11.717808,4.7103418 H 1110.8019 V 798.41681 H -11.717808 Z"
           id="path1"
           style="stroke-width:1.33333" />
      </g>
    </clipPath>
    <clipPath
       clipPathUnits="userSpaceOnUse"
       id="clipPath2">
      <g
         id="g3"
         transform="matrix(0.75000019,0,0,-0.75000019,-338.60864,434.84985)">
        <path
           d="M -11.717808,4.7103418 H 1110.8019 V 798.41681 H -11.717808 Z"
           id="path2"
           style="stroke-width:1.33333" />
      </g>
    </clipPath>
    <clipPath
       clipPathUnits="userSpaceOnUse"
       id="clipPath4">
      <g
         id="g5"
         transform="matrix(0.75000019,0,0,-0.75000019,-444.50464,438.18386)">
        <path
           d="M -11.717808,4.7103418 H 1110.8019 V 798.41681 H -11.717808 Z"
           id="path4"
           style="stroke-width:1.33333" />
      </g>
    </clipPath>
    <clipPath
       clipPathUnits="userSpaceOnUse"
       id="clipPath5">
      <g
         id="g6"
         transform="matrix(0.75000019,0,0,-0.75000019,-379.49384,438.18386)">
        <path
           d="M -11.717808,4.7103418 H 1110.8019 V 798.41681 H -11.717808 Z"
           id="path5"
           style="stroke-width:1.33333" />
      </g>
    </clipPath>
    <clipPath
       clipPathUnits="userSpaceOnUse"
       id="clipPath6">
      <g
         id="g7"
         transform="matrix(0.75000019,0,0,-0.75000019,-370.97484,388.73166)">
        <path
           d="M -11.717808,4.7103418 H 1110.8019 V 798.41681 H -11.717808 Z"
           id="path6"
           style="stroke-width:1.33333" />
      </g>
    </clipPath>
    <clipPath
       clipPathUnits="userSpaceOnUse"
       id="clipPath7">
      <g
         id="g8"
         transform="matrix(0.75000019,0,0,-0.75000019,-490.79854,379.08525)">
        <path
           d="M -11.717808,4.7103418 H 1110.8019 V 798.41681 H -11.717808 Z"
           id="path7"
           style="stroke-width:1.33333" />
      </g>
    </clipPath>
    <clipPath
       clipPathUnits="userSpaceOnUse"
       id="clipPath18">
      <g
         id="g19"
         transform="matrix(0.75000019,0,0,-0.75000019,-333.56224,411.54716)">
        <path
           d="M -11.717808,4.7103418 H 1110.8019 V 798.41681 H -11.717808 Z"
           id="path18"
           style="stroke-width:1.33333" />
      </g>
    </clipPath>
    <clipPath
       clipPathUnits="userSpaceOnUse"
       id="clipPath19">
      <g
         id="g20"
         transform="matrix(0.75000019,0,0,-0.75000019,-490.44214,411.27856)">
        <path
           d="M -11.717808,4.7103418 H 1110.8019 V 798.41681 H -11.717808 Z"
           id="path19"
           style="stroke-width:1.33333" />
      </g>
    </clipPath>
    <clipPath
       clipPathUnits="userSpaceOnUse"
       id="clipPath20">
      <g
         id="g21"
         transform="matrix(0.75000019,0,0,-0.75000019,-489.03584,411.54716)">
        <path
           d="M -11.717808,4.7103418 H 1110.8019 V 798.41681 H -11.717808 Z"
           id="path20"
           style="stroke-width:1.33333" />
      </g>
    </clipPath>
    <clipPath
       clipPathUnits="userSpaceOnUse"
       id="clipPath21">
      <g
         id="g22"
         transform="matrix(0.75000019,0,0,-0.75000019,-335.04224,411.54716)">
        <path
           d="M -11.717808,4.7103418 H 1110.8019 V 798.41681 H -11.717808 Z"
           id="path21"
           style="stroke-width:1.33333" />
      </g>
    </clipPath>
    <clipPath
       clipPathUnits="userSpaceOnUse"
       id="clipPath31">
      <g
         id="g32">
        <path
           d="M -11.717808,4.7103418 H 1110.8019 V 798.41681 H -11.717808 Z"
           id="path31"
           style="stroke-width:1.33333" />
      </g>
    </clipPath>
    <clipPath
       clipPathUnits="userSpaceOnUse"
       id="clipPath32">
      <g
         id="g33"
         transform="matrix(0.75000019,0,0,-0.75000019,-339.48754,417.47296)">
        <path
           d="M -11.717808,4.7103418 H 1110.8019 V 798.41681 H -11.717808 Z"
           id="path32"
           style="stroke-width:1.33333" />
      </g>
    </clipPath>
    <clipPath
       clipPathUnits="userSpaceOnUse"
       id="clipPath33">
      <g
         id="g34"
         transform="matrix(0.75000019,0,0,-0.75000019,-412.09255,458.55596)">
        <path
           d="M -11.717808,4.7103418 H 1110.8019 V 798.41681 H -11.717808 Z"
           id="path33"
           style="stroke-width:1.33333" />
      </g>
    </clipPath>
    <clipPath
       clipPathUnits="userSpaceOnUse"
       id="clipPath34">
      <g
         id="g35"
         transform="matrix(0.75000019,0,0,-0.75000019,-413.06464,458.74246)">
        <path
           d="M -11.717808,4.7103418 H 1110.8019 V 798.41681 H -11.717808 Z"
           id="path34"
           style="stroke-width:1.33333" />
      </g>
    </clipPath>
    <clipPath
       clipPathUnits="userSpaceOnUse"
       id="clipPath35">
      <g
         id="g36"
         transform="matrix(0.75000019,0,0,-0.75000019,-547.90404,357.42895)">
        <path
           d="M -11.717808,4.7103418 H 1110.8019 V 798.41681 H -11.717808 Z"
           id="path35"
           style="stroke-width:1.33333" />
      </g>
    </clipPath>
    <clipPath
       clipPathUnits="userSpaceOnUse"
       id="clipPath36">
      <g
         id="g37"
         transform="matrix(0.75000019,0,0,-0.75000019,-464.98704,465.58815)">
        <path
           d="M -11.717808,4.7103418 H 1110.8019 V 798.41681 H -11.717808 Z"
           id="path36"
           style="stroke-width:1.33333" />
      </g>
    </clipPath>
    <clipPath
       clipPathUnits="userSpaceOnUse"
       id="clipPath37">
      <g
         id="g38"
         transform="matrix(0.75000019,0,0,-0.75000019,-430.75164,416.96905)">
        <path
           d="M -11.717808,4.7103418 H 1110.8019 V 798.41681 H -11.717808 Z"
           id="path37"
           style="stroke-width:1.33333" />
      </g>
    </clipPath>
    <clipPath
       clipPathUnits="userSpaceOnUse"
       id="clipPath38">
      <g
         id="g39"
         transform="matrix(0.75000019,0,0,-0.75000019,-430.75164,416.96905)">
        <path
           d="M -11.717808,4.7103418 H 1110.8019 V 798.41681 H -11.717808 Z"
           id="path38"
           style="stroke-width:1.33333" />
      </g>
    </clipPath>
    <clipPath
       clipPathUnits="userSpaceOnUse"
       id="clipPath39">
      <g
         id="g40"
         transform="matrix(0.75000019,0,0,-0.75000019,-451.54274,411.92896)">
        <path
           d="M -11.717808,4.7103418 H 1110.8019 V 798.41681 H -11.717808 Z"
           id="path39"
           style="stroke-width:1.33333" />
      </g>
    </clipPath>
  </defs>
  <g
     id="g214"
     transform="matrix(1.2451722,0,0,-1.2451722,479.3084,211.52239)"
     clip-path="none">
    <path
       d="m 0,0 c 0,0 17.146,32.587 60.747,32.596 41.869,0.013 -7.405,-20.745 -19.261,-40.006 0,0 91.868,-29.632 25.191,-173.361 -3.794,-8.174 -23.797,-61.104 16.297,-71.123 5.777,-1.44 17.702,-4.602 12.797,-12.08 -11.608,-17.707 -45.424,-12.568 -61.004,-3.49 -4.588,2.673 -9.937,9.654 -15.506,9.645 -0.004,0 -5.926,-1.48 0,-10.371 3.685,-5.53 -9.042,-2.99 -10.276,-2.626 -23.388,6.941 -31.858,33.938 -29.73,55.968 C -20.737,-214.748 0,0 0,0"
       style="fill:#00b999;fill-opacity:1;fill-rule:nonzero;stroke:none"
       id="path216" />
  </g>
  <g
     id="g218"
     transform="matrix(1.2451722,0,0,-1.2451722,447.94188,403.87971)"
     clip-path="none">
    <path
       d="m 0,0 c 0,-77.134 -66.344,-92.871 -148.173,-92.871 -81.831,0 -148.172,15.737 -148.172,92.871 0,77.135 66.341,139.667 148.172,139.667 C -66.344,139.667 0,77.135 0,0"
       style="fill:#fadcd9;fill-opacity:1;fill-rule:nonzero;stroke:none"
       id="path220" />
  </g>
  <g
     id="g222"
     transform="matrix(1.2451722,0,0,-1.2451722,164.74676,448.56421)"
     clip-path="none">
    <path
       d="m 0,0 c 0,-10.636 -11.113,-19.262 -24.819,-19.262 -13.707,0 -24.82,8.626 -24.82,19.262 0,10.64 11.113,19.265 24.82,19.265 C -11.113,19.265 0,10.64 0,0"
       style="fill:#f9d1d9;fill-opacity:1;fill-rule:nonzero;stroke:none"
       id="path224" />
  </g>
  <g
     id="g226"
     transform="matrix(1.2451722,0,0,-1.2451722,430.42318,448.56421)"
     clip-path="none">
    <path
       d="m 0,0 c 0,-10.636 -11.113,-19.262 -24.817,-19.262 -13.704,0 -24.818,8.626 -24.818,19.262 0,10.64 11.114,19.265 24.818,19.265 C -11.113,19.265 0,10.64 0,0"
       style="fill:#f9d1d9;fill-opacity:1;fill-rule:nonzero;stroke:none"
       id="path228" />
  </g>
  <g
     id="g230"
     transform="matrix(1.2451722,0,0,-1.2451722,95.557022,161.70766)"
     clip-path="none">
    <path
       d="M 0,0 C 0,0 -51.862,14.815 -14.818,72.603 22.226,130.39 -5.926,54.822 5.927,17.78 Z"
       style="fill:#00b999;fill-opacity:1;fill-rule:nonzero;stroke:none"
       id="path232" />
  </g>
  <g
     id="g234"
     transform="matrix(1.2451722,0,0,-1.2451722,499.61055,257.64544)"
     clip-path="none">
    <path
       d="m 0,0 c 0,68.157 -84.914,146.69 -189.662,146.69 -104.745,0 -189.659,-81.133 -189.659,-186.696 0,0 -37.041,-8.895 -14.815,-28.156 22.225,-19.261 128.909,-8.89 145.207,69.642 0,0 14.608,-64.394 71.122,-81.493 63.717,-19.278 25.189,28.151 25.189,28.151 0,0 43.898,-30.734 97.792,-32.596 0,0 1.484,-72.603 -13.336,-102.238 -14.812,-29.636 29.636,-29.641 48.896,2.96 l 4.446,-5.925 c 0,0 22.225,-44.452 13.336,105.203 0,0 14.819,10.366 20.749,20.741 5.922,10.375 -13.335,10.375 -13.335,10.375 0,0 20.741,0 34.076,35.561 C 53.342,17.78 26.671,-7.406 13.335,-8.891 0,-10.375 0,-4.445 0,-4.445 Z"
       style="fill:#00b999;fill-opacity:1;fill-rule:nonzero;stroke:none"
       id="path236" />
  </g>
  <g
     id="g238"
     transform="matrix(1.2451722,0,0,-1.2451722,98.624255,335.13562)"
     clip-path="none">
    <path
       d="m 0,0 c 0,0 -1.48,-94.828 13.335,-124.464 14.816,-29.636 -29.633,-29.64 -48.897,2.96 l -4.444,-5.925 c 0,0 -22.226,-31.116 -13.336,118.539 z"
       style="fill:#00b999;fill-opacity:1;fill-rule:nonzero;stroke:none"
       id="path240" />
  </g>
  <g
     id="g242"
     transform="matrix(1.2451722,0,0,-1.2451722,206.24848,408.01468)"
     clip-path="none">
    <path
       d="m 0,0 c 0,-16.777 -13.601,-30.378 -30.376,-30.378 -16.773,0 -30.374,13.601 -30.374,30.378 0,16.773 13.601,30.374 30.374,30.374 C -13.601,30.374 0,16.773 0,0"
       style="fill:#8e4849;fill-opacity:1;fill-rule:nonzero;stroke:none"
       id="path244" />
  </g>
  <g
     id="g246"
     transform="matrix(1.2451722,0,0,-1.2451722,246.84171,471.66676)"
     clip-path="none">
    <path
       d="m 0,0 c 0.379,0.006 0.673,-0.632 1.123,-1.583 0.442,-0.953 1.146,-2.154 2.309,-2.664 1.16,-0.546 3.145,-0.602 5.581,-0.253 1.212,0.158 2.53,0.398 3.953,0.638 1.443,0.227 2.936,0.506 4.795,0.53 1.899,-0.025 3.363,-0.32 4.805,-0.547 1.416,-0.242 2.729,-0.475 3.94,-0.63 1.213,-0.164 2.312,-0.228 3.27,-0.194 0.948,0.05 1.727,0.208 2.325,0.48 1.18,0.513 1.887,1.695 2.335,2.645 0.454,0.946 0.746,1.584 1.126,1.578 0.332,-0.002 0.739,-0.615 0.869,-1.891 0.043,-0.636 0.043,-1.451 -0.265,-2.412 -0.286,-0.951 -0.925,-2.068 -1.985,-2.941 -1.054,-0.875 -2.414,-1.42 -3.791,-1.717 -1.378,-0.282 -2.812,-0.361 -4.24,-0.315 -1.433,0.04 -2.878,0.194 -4.315,0.368 -1.411,0.165 -2.902,0.384 -4.067,0.388 -1.204,-0.007 -2.669,-0.21 -4.081,-0.374 -1.431,-0.169 -2.868,-0.327 -4.299,-0.372 -1.425,-0.049 -2.853,0.013 -4.239,0.293 -1.378,0.279 -2.752,0.838 -3.81,1.713 -1.063,0.886 -1.69,2.013 -1.966,2.964 -0.298,0.963 -0.292,1.775 -0.246,2.409 C -0.738,-0.615 -0.333,-0.003 0,0"
       style="fill:#c44664;fill-opacity:1;fill-rule:nonzero;stroke:none"
       id="path248" />
  </g>
  <g
     id="g266"
     transform="matrix(1.2451722,0,0,-1.2451722,147.21462,393.20933)"
     clip-path="none">
    <path
       d="M 0,0 C -0.024,-0.357 -0.493,-0.647 -1.345,-0.862 -1.771,-0.97 -2.292,-1.059 -2.9,-1.128 -3.509,-1.2 -4.203,-1.261 -4.965,-1.194 c -3.045,0.041 -7.389,0.987 -11.547,3.575 -4.122,2.664 -6.832,6.458 -7.841,9.454 -1.094,2.991 -0.787,5.089 -0.095,5.203 0.713,0.14 1.638,-1.367 3.323,-3.459 C -19.499,11.456 -17,8.896 -13.712,6.748 -7.025,2.554 0.142,1.621 0,0"
       style="fill:#8e4849;fill-opacity:1;fill-rule:nonzero;stroke:none"
       id="path268" />
  </g>
  <g
     id="g270"
     transform="matrix(1.2451722,0,0,-1.2451722,326.17774,408.01468)"
     clip-path="none">
    <path
       d="m 0,0 c 0,-16.777 13.604,-30.378 30.378,-30.378 16.773,0 30.374,13.601 30.374,30.378 0,16.773 -13.601,30.374 -30.374,30.374 C 13.604,30.374 0,16.773 0,0"
       style="fill:#8e4849;fill-opacity:1;fill-rule:nonzero;stroke:none"
       id="path272" />
  </g>
  <g
     id="g274"
     transform="matrix(1.2451722,0,0,-1.2451722,385.21397,393.20933)"
     clip-path="none">
    <path
       d="m 0,0 c -0.142,1.621 7.025,2.554 13.713,6.748 3.287,2.147 5.786,4.707 7.413,6.831 1.684,2.092 2.608,3.599 3.322,3.459 0.692,-0.113 0.999,-2.212 -0.095,-5.203 C 23.345,8.839 20.634,5.045 16.513,2.381 12.354,-0.207 8.01,-1.153 4.965,-1.194 4.203,-1.261 3.509,-1.2 2.9,-1.128 2.293,-1.059 1.771,-0.97 1.345,-0.862 0.493,-0.647 0.024,-0.357 0,0"
       style="fill:#8e4849;fill-opacity:1;fill-rule:nonzero;stroke:none"
       id="path276" />
  </g>
  <g
     id="g278"
     transform="matrix(1.2451722,0,0,-1.2451722,73.211417,256.97541)"
     clip-path="none">
    <path
       d="m 0,0 c 0.342,-0.106 0.406,-0.929 0.216,-2.358 -0.095,-0.715 -0.253,-1.581 -0.472,-2.582 -0.22,-1 -0.652,-2.069 -1.074,-3.283 -0.225,-0.603 -0.462,-1.234 -0.709,-1.891 -0.271,-0.647 -0.613,-1.287 -0.944,-1.967 -0.683,-1.345 -1.376,-2.817 -2.327,-4.223 -0.458,-0.717 -0.927,-1.45 -1.407,-2.199 -0.47,-0.759 -1.061,-1.447 -1.609,-2.191 -0.565,-0.73 -1.128,-1.485 -1.734,-2.221 -0.634,-0.709 -1.278,-1.429 -1.93,-2.157 -5.272,-5.8 -11.133,-9.848 -15.556,-12.309 -4.462,-2.44 -7.587,-3.239 -7.894,-2.599 -0.318,0.647 2.088,2.543 5.845,5.641 3.727,3.124 8.884,7.377 13.791,12.783 4.962,5.357 8.708,10.784 11.166,14.917 0.599,1.04 1.241,1.948 1.697,2.795 0.454,0.848 0.875,1.574 1.254,2.16 C -0.93,-0.511 -0.342,0.106 0,0"
       style="fill:#00948c;fill-opacity:1;fill-rule:nonzero;stroke:none"
       id="path280" />
  </g>
  <g
     id="g282"
     transform="matrix(1.2451722,0,0,-1.2451722,411.28352,259.47796)"
     clip-path="none">
    <path
       d="m 0,0 c 0.128,0.125 0.855,-0.32 2.111,-1.27 0.628,-0.474 1.388,-1.076 2.271,-1.796 0.87,-0.736 2.005,-1.427 3.19,-2.303 4.801,-3.397 12.177,-7.853 22.178,-10.957 4.993,-1.542 10.63,-2.669 16.731,-3.212 6.097,-0.525 12.688,-0.411 19.424,0.702 0.833,0.17 1.672,0.341 2.515,0.514 l 1.268,0.26 1.247,0.342 c 0.834,0.237 1.669,0.449 2.514,0.705 0.868,0.283 1.741,0.567 2.619,0.852 1.791,0.575 3.638,1.142 5.591,1.597 1.964,0.439 3.983,0.853 6.441,0.701 0.624,-0.057 1.274,-0.139 1.998,-0.384 0.698,-0.203 1.5,-0.63 2.202,-1.251 0.682,-0.653 1.245,-1.554 1.451,-2.403 0.249,-0.859 0.261,-1.635 0.219,-2.337 -0.119,-1.383 -0.476,-2.526 -0.876,-3.59 -0.201,-0.534 -0.434,-1.024 -0.654,-1.538 l -0.729,-1.446 c -2.025,-3.758 -4.683,-7.182 -7.728,-10.216 -3.135,-3.125 -6.598,-5.772 -10.188,-8.044 -1.812,-1.108 -3.63,-2.173 -5.502,-3.101 -1.887,-0.95 -3.705,-1.789 -5.767,-2.557 -0.41,1.649 -0.815,3.275 -1.22,4.901 3.556,0.444 6.914,0.607 10.414,0.344 1.741,-0.15 3.5,-0.401 5.314,-1.012 0.903,-0.293 1.838,-0.739 2.745,-1.353 0.901,-0.667 1.799,-1.575 2.314,-2.794 0.49,-1.191 0.595,-2.5 0.406,-3.549 -0.081,-0.538 -0.182,-1.07 -0.358,-1.51 -0.162,-0.458 -0.308,-0.945 -0.523,-1.329 -0.762,-1.693 -1.767,-2.98 -2.744,-4.269 -2.02,-2.483 -4.176,-4.546 -6.37,-6.465 -1.123,-0.931 -2.23,-1.849 -3.32,-2.753 -0.532,-0.468 -1.105,-0.875 -1.686,-1.265 -0.573,-0.396 -1.143,-0.79 -1.707,-1.181 -2.206,-1.642 -4.592,-2.841 -6.796,-4.136 -4.586,-2.272 -8.99,-4.043 -13.142,-5.138 -4.14,-1.111 -7.939,-1.801 -11.288,-2.089 -3.34,-0.357 -6.224,-0.338 -8.557,-0.257 -4.677,0.237 -7.167,0.938 -7.116,1.24 0.045,0.314 2.55,0.22 7.093,0.536 2.268,0.195 5.047,0.439 8.236,1.031 3.197,0.522 6.793,1.419 10.676,2.686 3.898,1.251 7.99,3.126 12.227,5.426 2.03,1.308 4.232,2.501 6.253,4.117 0.519,0.383 1.042,0.769 1.568,1.158 0.534,0.38 1.06,0.776 1.545,1.233 0.999,0.877 2.013,1.767 3.04,2.67 2.009,1.846 4.011,3.875 5.698,6.053 0.793,1.093 1.621,2.232 2.076,3.345 0.496,1.113 0.606,2.119 0.369,2.529 -0.101,0.227 -0.332,0.467 -0.687,0.736 -0.406,0.248 -0.899,0.506 -1.513,0.689 -1.204,0.387 -2.646,0.598 -4.126,0.7 -2.961,0.194 -6.221,0.002 -9.301,-0.414 l -1.221,4.902 c 1.636,0.628 3.444,1.465 5.141,2.34 1.727,0.87 3.405,1.869 5.076,2.899 3.305,2.113 6.465,4.548 9.279,7.356 2.736,2.725 5.075,5.739 6.842,8.98 0.872,1.583 1.578,3.318 1.691,4.502 0.019,0.271 0.006,0.488 -0.023,0.564 -0.009,0.017 -0.01,0.035 -0.006,0.057 -0.006,0.007 -0.016,-0.003 -0.012,0.002 0.023,0.02 -0.018,-0.009 0.004,0.016 0.002,0.025 -0.467,0.26 -1.151,0.305 -1.392,0.114 -3.182,-0.152 -4.894,-0.536 -1.733,-0.382 -3.475,-0.89 -5.216,-1.423 -0.888,-0.275 -1.771,-0.548 -2.649,-0.82 -0.912,-0.263 -1.844,-0.489 -2.759,-0.731 l -1.372,-0.349 -1.375,-0.261 c -0.914,-0.169 -1.823,-0.338 -2.726,-0.505 -14.536,-2.091 -27.771,0.129 -38.077,3.746 C 18.255,-16.096 10.871,-10.941 6.324,-6.956 5.201,-5.932 4.143,-5.098 3.362,-4.223 2.567,-3.364 1.908,-2.629 1.389,-2.024 0.35,-0.814 -0.128,-0.125 0,0"
       style="fill:#00948c;fill-opacity:1;fill-rule:nonzero;stroke:none"
       id="path284" />
  </g>
  <g
     id="g286"
     transform="matrix(1.2451722,0,0,-1.2451722,495.69138,281.27209)"
     clip-path="none">
    <path
       d="m 0,0 c -0.354,0.057 -0.586,0.956 -0.706,2.506 -0.061,0.775 -0.093,1.714 -0.098,2.793 -0.062,1.087 -0.127,2.32 -0.161,3.674 -0.191,5.421 -0.702,12.86 -1.834,21.053 -2.267,16.398 -5.775,29.506 -4.425,29.984 0.671,0.245 2.458,-2.792 4.396,-8.047 C -0.92,46.709 1.18,39.231 2.34,30.735 3.516,22.243 3.459,14.388 2.698,8.793 2.496,7.394 2.3,6.134 2.085,5.036 1.811,3.94 1.547,3.005 1.296,2.25 0.796,0.737 0.354,-0.057 0,0"
       style="fill:#00948c;fill-opacity:1;fill-rule:nonzero;stroke:none"
       id="path288" />
  </g>
  <g
     id="g290"
     transform="matrix(1.2451722,0,0,-1.2451722,527.51748,220.04099)"
     clip-path="none">
    <path
       d="m 0,0 c -0.016,-0.358 -0.354,-0.695 -0.932,-0.998 -0.578,-0.308 -1.395,-0.549 -2.383,-0.855 -1.981,-0.544 -4.639,-1.136 -7.555,-1.881 -5.842,-1.418 -10.574,-3.008 -11.356,-1.823 -0.391,0.596 0.424,1.902 2.22,3.256 1.783,1.365 4.565,2.774 7.87,3.597 3.299,0.845 6.442,0.903 8.655,0.516 1.108,-0.16 1.992,-0.478 2.588,-0.791 C -0.295,0.703 0.016,0.358 0,0"
       style="fill:#00948c;fill-opacity:1;fill-rule:nonzero;stroke:none"
       id="path292" />
  </g>
  <g
     id="g294"
     transform="matrix(1.2451722,0,0,-1.2451722,96.481189,347.3459)"
     clip-path="none">
    <path
       d="M 0,0 C 0.191,-0.302 -0.266,-0.947 -1.294,-1.874 -1.809,-2.337 -2.465,-2.87 -3.253,-3.463 -4.066,-4 -5.043,-4.524 -6.126,-5.119 -6.673,-5.399 -7.234,-5.742 -7.854,-5.996 -8.479,-6.243 -9.128,-6.5 -9.8,-6.766 c -0.68,-0.257 -1.383,-0.523 -2.107,-0.796 -0.743,-0.203 -1.508,-0.412 -2.292,-0.626 -0.787,-0.2 -1.593,-0.437 -2.426,-0.607 -0.838,-0.143 -1.693,-0.289 -2.563,-0.438 -1.742,-0.34 -3.564,-0.418 -5.425,-0.583 -7.467,-0.406 -14.152,0.667 -18.811,1.913 -4.667,1.292 -7.35,2.775 -7.14,3.458 0.207,0.686 3.13,0.489 7.76,0.157 4.631,-0.289 10.98,-0.727 17.906,-0.348 6.926,0.383 13.037,1.628 17.395,2.917 1.082,0.341 2.094,0.598 2.973,0.86 0.85,0.317 1.604,0.567 2.243,0.744 C -1.01,0.239 -0.191,0.302 0,0"
       style="fill:#00948c;fill-opacity:1;fill-rule:nonzero;stroke:none"
       id="path296" />
  </g>
  <g
     id="g298"
     transform="matrix(1.2451722,0,0,-1.2451722,181.58149,185.44737)"
     clip-path="none">
    <path
       d="m 0,0 c 0.345,-0.094 0.524,-0.941 0.564,-2.315 -0.016,-0.675 0.088,-1.536 0.123,-2.504 0.016,-0.484 0.034,-1 0.052,-1.547 0.043,-0.552 0.088,-1.136 0.135,-1.749 0.33,-4.883 1.06,-11.654 2.136,-19.156 1.051,-7.502 2.084,-14.317 2.713,-19.281 0.607,-4.983 0.868,-8.045 0.202,-8.283 -1.471,-0.463 -5.923,11.472 -8.053,26.851 -1.102,7.68 -1.283,14.812 -0.664,19.977 0.083,0.643 0.162,1.256 0.237,1.836 0.106,0.58 0.239,1.129 0.355,1.636 0.248,1.015 0.441,1.878 0.775,2.57 C -0.831,-0.583 -0.345,0.094 0,0"
       style="fill:#00948c;fill-opacity:1;fill-rule:nonzero;stroke:none"
       id="path300" />
  </g>
  <g
     id="g302"
     transform="matrix(1.2451722,0,0,-1.2451722,488.77245,357.72379)"
     clip-path="none">
    <path
       d="m 0,0 c 0.663,0.228 4.246,-8.195 7.987,-22.461 1.846,-7.134 3.722,-15.731 5.058,-25.43 1.309,-9.688 2.142,-20.512 1.236,-31.924 -0.457,-5.699 -1.392,-11.262 -2.856,-16.526 -1.504,-5.249 -3.577,-10.216 -6.477,-14.513 -1.446,-2.146 -3.131,-4.106 -5.073,-5.767 -1.972,-1.619 -4.187,-3.049 -7.026,-3.464 -0.703,-0.103 -1.476,-0.088 -2.258,0.043 -0.793,0.152 -1.615,0.485 -2.333,1.026 -0.714,0.567 -1.237,1.325 -1.555,2.1 -0.115,0.379 -0.266,0.779 -0.299,1.144 l -0.072,0.556 -0.034,0.363 c -0.096,0.936 -0.133,1.865 -0.3,2.751 -0.092,0.587 -0.182,1.162 -0.269,1.722 -0.059,0.32 -0.11,0.594 -0.201,0.921 -0.039,0.161 -0.092,0.322 -0.145,0.491 l -0.088,0.254 c -0.015,0.034 -0.033,0.105 -0.049,0.109 l -0.047,-0.074 c -0.25,-0.388 -0.511,-0.861 -0.926,-1.365 l -0.147,-0.193 -0.081,-0.11 -0.154,-0.227 c -0.2,-0.305 -0.403,-0.599 -0.628,-0.865 -0.438,-0.542 -0.859,-1.064 -1.262,-1.564 -0.796,-1.005 -1.647,-1.81 -2.354,-2.579 -2.971,-2.948 -4.987,-4.143 -5.207,-3.882 -0.247,0.28 1.279,1.962 3.68,5.202 0.561,0.838 1.266,1.705 1.901,2.741 0.326,0.51 0.666,1.042 1.018,1.596 0.187,0.271 0.346,0.564 0.501,0.863 0.231,0.45 0.468,0.908 0.708,1.373 0.273,0.535 0.553,1.078 0.836,1.63 0.143,0.278 0.287,0.557 0.432,0.838 0.127,0.22 0.255,0.441 0.382,0.663 0.532,0.901 1.08,1.829 1.643,2.784 l 0.218,0.362 c 0.017,0.056 0.036,0.013 0.054,-0.023 l 0.055,-0.095 0.108,-0.19 c 0.138,-0.248 0.278,-0.498 0.419,-0.75 0.271,-0.504 0.545,-1.014 0.823,-1.532 0.276,-0.529 0.567,-1.045 0.812,-1.718 0.241,-0.648 0.561,-1.27 0.753,-1.978 0.207,-0.707 0.417,-1.422 0.63,-2.146 l 0.08,-0.274 0.045,-0.194 0.079,-0.366 0.159,-0.739 c 0.243,-0.988 0.348,-2.017 0.507,-3.062 l 0.056,-0.383 0.043,-0.19 c 0.008,-0.142 0.082,-0.209 0.098,-0.32 0.099,-0.155 0.183,-0.253 0.291,-0.332 0.13,-0.062 0.294,-0.135 0.544,-0.17 0.262,-0.016 0.568,-0.03 0.927,0.048 1.446,0.256 3.156,1.299 4.638,2.645 1.494,1.375 2.877,3.061 4.081,4.962 2.422,3.805 4.24,8.355 5.567,13.24 1.293,4.905 2.147,10.145 2.583,15.582 0.867,10.883 0.214,21.416 -0.81,30.923 -1.05,9.519 -2.524,18.056 -3.891,25.203 C 1.626,-8.976 -0.694,-0.228 0,0"
       style="fill:#00948c;fill-opacity:1;fill-rule:nonzero;stroke:none"
       id="path304" />
  </g>
  <g
     id="g322"
     transform="matrix(1.2451722,0,0,-1.2451722,185.04095,321.29279)"
     clip-path="none">
    <path
       d="m 0,0 c -0.336,-0.67 -2.187,-0.355 -4.875,-0.096 -2.701,0.226 -6.254,0.233 -10.03,-0.952 -3.785,-1.133 -7.038,-3.044 -9.444,-4.453 -2.407,-1.426 -3.988,-2.363 -4.545,-1.909 -0.555,0.444 0.131,2.355 2.178,4.711 2.034,2.317 5.525,5.168 10.31,6.616 2.369,0.735 4.791,0.971 6.948,0.822 C -7.295,4.597 -5.411,4.068 -3.938,3.45 -0.994,2.136 0.312,0.596 0,0"
       style="fill:#00b999;fill-opacity:1;fill-rule:nonzero;stroke:none"
       id="path324" />
  </g>
</svg>
