<svg viewBox="0 0 500 500" xmlns="http://www.w3.org/2000/svg"><g fill="none" stroke-width="2"><path d="m384.5 59.54q-4.8 2.55-8.67 6.45a1.12.37 1.8 0 1 -.74.22l-.44.04a1.01.55-75.2 0 0 -.63.66c-1.24 3.29-8.79 8.12-11.31 9.87a.74.56-30.6 0 0 -.32.78q.24.56 1.13.43c12.57-1.93 27.28 4.04 38.11 10a.6.48 28.5 0 0 .76-.14q.27-.5-.19-1.09-7.29-9.45-18.35-16.01-.43-.25.01-.46 11.73-5.7 21.16-14.75" stroke="#12a895"/><path d="m450.29 77c-1.29 7.8 4.89 17.87 8.09 24.94 10.22 22.56 15.97 46.75 16.53 71.48.52 22.9-.28 45.59-2.67 68.37" stroke="#32b8aa"/><path d="m466.91 241.62q-9.86-12.09-21.12-22.87" stroke="#25c6a2"/><path d="m446.93 203.51c.1-4.41.21-8.48-.39-13q-.6-4.57-1.02-9.18c-.09-.95-.61-1.61-.98.05-.7 3.12-3.44 14.74-6.29 15.91" stroke="#12a895"/><path d="m400.79 166.25-2.27-2.81" stroke="#32b8aa"/><path d="m398.52 163.44q-10.17-12.51-21-30.44-12.29-20.35-15.3-46.22a.76.75 80.6 0 0 -.9-.65q-.05 0-.18.18a.7.63 67.1 0 0 -.15.43q.02 7.62 0 15.22c-.01 4.33-2.93 9.01-4.79 12.84a1.44 1.19 54.3 0 0 -.06.93l4.29 15.42" stroke="#12a895"/><path d="m360.43 131.15q-7.82 11.61-18.32 21.02" stroke="#25c6a2"/><path d="m342.11 152.17-14.14-.58a1.16 1.14 71 0 1 -.84-.42c-6.32-7.43-12.38-15.58-19.16-21.96-12.35-11.63-22.65-19.02-39.45-31.22q-4.02-2.91-6.96-4.47a.9.57 37.6 0 0 -.75-.07q-.34.21.09.65 16.75 17.23 24.75 26c7.88 8.64 11.85 15.59 16.92 23.38q2.56 3.92-1.96 2.7-12.03-3.25-22.25-9.68c-.5-.31-1.16-.18-.59.51q11.35 13.9 28.47 18.58 1.64.45 5.26 1.99c3.77 1.61 8.43 1.36 11.75 1.92q3.07.52 6.23.7a.5.45 6.5 0 1 .46.53l-.4 2.52" stroke="#12a895"/><path d="m329.54 163.25q-15.8 13.84-35.49 21.13c-.68.26-1.05.82-1.76 1.12" stroke="#25c6a2"/><path d="m292.29 185.5-2.41-2.61a.27.25 57.3 0 1 .07-.42q.95-.38 1.29-1.32a.56.52 20.9 0 0 -.33-.67c-16.63-7.04-36.92-2.06-51.43 7.3" stroke="#1e8f7e"/><path d="m239.48 187.78q-20.54-2.59-38.94-10.78" stroke="#74bca9"/><path d="m200.54 177q-3.08-3.72-7.91-6.88-1.06-.69-.52.46c4.42 9.53 8.37 18.34 15.14 27.45a1.39 1.06 71.6 0 0 .79.54l.71.14" stroke="#12a895"/><path d="m208.75 198.71.54.79" stroke="#74bca9"/><path d="m209.29 199.5-11.54 9.54" stroke="#25c6a2"/><path d="m197.75 209.04q-11.19-4.86-21.09-12.4" stroke="#80d3c0"/><path d="m176.66 196.64 4.87-1.37q.71-.2.87-.36c1.86-1.87-10.7-2.56-11.5-2.67" stroke="#12a895"/><path d="m170.9 192.24q-19.07-17-25.44-41.99" stroke="#80d3c0"/><path d="m145.46 150.25q-1.43-4.27-2.1-8.73-.07-.49-.14.16-.93 8.6 1.57 16.82" stroke="#12a895"/><path d="m144.79 158.5c-.2 4.83-.71 9.63-.69 14.42q.04 12.74-.92 25.7" stroke="#74bca9"/><path d="m143.18 198.62q-3.48-9.77-5.94-19.83-.05-.21-.16-.01-.18.31-.33.02-.09-.18-.1.02-.71 20.31 8.05 38.51" stroke="#12a895"/><path d="m144.7 217.33 7.84 26.67" stroke="#74bca9"/><path d="m152.54 244q-2.58 3.55 1.17 3" stroke="#1e8f7e"/><path d="m153.71 247q.25 2.43 1.5 4.5" stroke="#74bca9"/><path d="m155.21 251.5q.41 3.02 2.29 5.46" stroke="#1e8f7e"/><path d="m157.5 256.96c-1.14 2.59-14.85 9.55-18 11.33" stroke="#25c6a2"/><path d="m139.5 268.29-8.96-6.54" stroke="#12a895"/><path d="m124.04 256.25q-11.57-15.81-19.21-33.88" stroke="#32b8aa"/><path d="m100.29 202q15.19.78 29.89-2.92a1.05.66 39.9 0 1 .61.08l.31.15q.48.23.41-.36-2.77-22.04.07-44.18a.36.35 87.1 0 0 -.43-.39c-7.08 1.58-13.91 3.33-21.2 3.66a.93.93 2.4 0 1 -.96-1.04c2.19-17.08 6.45-35.95 15.94-50.57q.83-1.29-.43-1.72" stroke="#25c6a2"/><path d="m105.31 78.15q6.76-7.89 11.28-17.15a.9.78-75.7 0 1 .72-.5h.9" stroke="#25c6a2"/><path d="m132.83 97.79q7.73 3.19 11.01-4.29.21-.48.59-.77c16.21-12.46 41.07-26.79 60.63-28.91q6.63-.72 15.92-1.04a1.46 1.29 19.9 0 0 .89-.35l18.24-17.11a1.47 1.21-64.3 0 1 .84-.39c4.78-.38 9.56-.88 14.33-.9 28.11-.17 52.25-1.6 76.23 7.28 10.68 3.96 17.32 8.97 25.26 18.12.68.78 1.19.72 1.27-.43" stroke="#32b8aa"/><g stroke="#25c6a2"><path d="m358.04 69c8.82-4.06 15.72-10.15 19.69-19.18q5.29-12.01 3.66-25.6"/><path d="m272.17 73.81q-3 3.91-5.85 7.14c-.8.91-.8 1.82.46 2.22a1.78 1.13-.8 0 1 .8.49q2.87 3.34 6.77 5.81a.49.49-58.1 0 0 .68-.16q2.4-3.94 3.89-9.08a2.29 1.81 31.6 0 0 -.77-2.11l-4.94-4.36a.74.68 39.5 0 0 -1.04.05"/><path d="m434.29 76.12c-.4 1.28-.61 2.16.26 3.34q2.39 3.22 4.84 6.47.37.5.41-.09l.32-5.63a1.1.84 25.6 0 0 -.42-.82l-4.47-3.58a.61.59-62.5 0 0 -.94.31"/><path d="m219.59 83.66q.88 1.33 2.17 2.07.49.28.32-.26-.5-1.58-2.23-2.15-.62-.2-.26.34"/><path d="m430.61 87.34-6.41 8.98a.73.65 45.5 0 0 .04.82q5.98 8.16 10.2 17.08.39.83.72-.02 3.09-7.98 4.44-16.4a1.24 1.24 32.7 0 0 -.2-.9q-3.63-5.27-7.85-9.61a.62.6 40.9 0 0 -.94.05"/><path d="m262.38 117.4a.21.21 41.7 0 0 .28-.01q3.87-3.97 6.47-9.21a.74.74 37.7 0 0 -.11-.83q-6.49-7.41-14.18-13.64a.56.55 41.7 0 0 -.74.04l-8.74 8.78a.8.78 41.9 0 0 .08 1.17z"/><path d="m406.38 161.65c7.35-5.21 14.66-12.85 20.18-20.02a.86.82 51.7 0 0 .08-.85q-7.73-16.56-17.61-31.38a1.04 1.04 48.3 0 0 -1.66-.1q-8.33 9.84-20.36 14.2-1.76.64-3.08-.69-6.41-6.46-10.11-15.32a.61.46 69.7 0 0 -.61-.39c-.49.15-.54.58-.47 1.07q1.94 13.47 9.01 25.07c6.61 10.84 12.61 20.21 22.84 28.36a1.49 1.48 46.4 0 0 1.79.05"/><path d="m252.49 128.06-20.56-14.39a.75.72 46 0 0 -.82-.03c-15.19 9.65-30 18.85-46.8 25.54a.47.46 66.8 0 0 -.25.63c5.2 10.94 9.84 21.35 16.93 31.05a.53.53-34.8 0 0 .73.13q10.1-6.91 20.1-13.98c12.43-8.79 21.6-17.19 30.77-28.26a.47.47 36.8 0 0 -.1-.69"/><path d="m169.58 181.57c5.4-2.9 12.56-5.65 16.97-9.47a1.34 1.3 55.9 0 0 .28-1.6l-11.66-22.43a.49.48 62.1 0 0 -.66-.21q-8.61 4.59-18.29 6.8a.42.42-17.5 0 0 -.3.57q5.65 13.68 13.04 26.17a.47.47 60.3 0 0 .62.17"/></g><path d="m224.81 157.78c-5.28 1.93-9.23 9.04-11.57 13.83a.75.63-57.3 0 0 .11.82q.82.74 1.97-.11c13.86-10.22 29.3-17.82 46.68-22.54q1.24-.34.89-.87a1 .65-15.6 0 0 -.86-.27q-19.13 2.55-37.22 9.14" stroke="#12a895"/><path d="m358.04 69q-1.21-6.41-.87-12.83" stroke="#57c4af"/><path d="m398.52 163.44c-3.07 21.81-11.74 39.61-23.74 58.39" stroke="#44a6a2"/><path d="m374.78 221.83-4.65 4.97q-.27.29-.12-.07 2.41-5.63 3.49-11.69" stroke="#92c1b8"/><path d="m373.5 215.04c3.3-10.36 2.29-21.52-8.6-26.87a.94.92-70.1 0 0 -1.3.63l-1.59 6.2" stroke="#86aaa1"/><path d="m362.01 195q-.71-6.3-.11-12.32a.73.73 84 0 0 -.95-.77q-20.11 6.73-40.89 10.91-.53.11-2.52-.07" stroke="#12a895"/><path d="m317.54 192.75-.69-4.3" stroke="#86aaa1"/><path d="m316.85 188.45c19.11-6.54 35.08-17.41 42.73-36.66 2.76-6.94 3.81-15.18 4.59-22.9q.28-2.8-1.74-.85-.79.77-2 3.11" stroke="#37b49a"/><path d="m342.11 152.17q-5.7 6.4-12.57 11.08" stroke="#37b49a"/><path d="m316.85 188.45q-10.01 1.17-20.21 2.44c-1.1.14-2.36-.3-3.6-.14" stroke="#98c8ad"/><path d="m293.04 190.75-1.54-4.21" stroke="#9adabc"/><path d="m291.5 186.54.79-1.04" stroke="#439b83"/><path d="m145.46 150.25q-.61 2.59-.17 5.25" stroke="#92c1b8"/><path d="m145.29 155.5-.5 3" stroke="#86aaa1"/><path d="m170.9 192.24q-12.2 3.93-21.65 11.8" stroke="#92c1b8"/><path d="m149.25 204.04q-.74-14.01-1.36-28.04c-.11-2.56-.75-5.35-.9-8.1q-.32-6.26-1.7-12.4" stroke="#f3d5cb"/><path d="m149.25 204.04c-1.42 1.42-5.88 5.72-4.42 6.39a.8.64-55 0 0 .82-.24l3.77-4.11" stroke="#86aaa1"/><path d="m149.42 206.08q2.22 11.27 3.06 22.17.32 4.08 2.49 11.81" stroke="#f3d5cb"/><path d="m154.97 240.06q-.49 2.18-2.43 3.94" stroke="#92918a"/><path d="m144.7 217.33q-.18-2.64-.73-5.13c-1.04-4.73-.43-8.9-.79-13.58" stroke="#86aaa1"/><path d="m359.28 247.04q10.16-11.17 15.5-25.21" stroke="#b2d1cd"/><path d="m200.54 177c.58 8.29 4.21 14.69 8.21 21.71" stroke="#86aaa1"/><path d="m239.48 187.78-3.69 2.72" stroke="#92918a"/><path d="m235.79 190.5c-4.52-4.87-8.62-.28-12.08 3" stroke="#f0c9bb"/><path d="m223.71 193.5-11.91-2.08a.32.31-1.8 0 0 -.36.38q2.7 11.54 10.06 20.79a1.12.74-65.3 0 1 .13.85l-.17.81" stroke="#f3d5cb"/><path d="m221.46 214.25q-6.86-6.73-12.17-14.75" stroke="#98c8ad"/><path d="m291.5 186.54q-7.51-1.85-15.25-2.25" stroke="#93a299"/><path d="m276.25 184.29q-6.94-1.08-13.54 1.21" stroke="#66695d"/><path d="m262.71 185.5q-22.58 3.75-32.64 24.04" stroke="#93a299"/><path d="m230.07 209.54q-.93 1.5-1.8.04a1.38.98-60.7 0 1 -.1-.93q.74-3.04-.25-6.28a.43.4-21.6 0 0 -.59-.23q-1.7.83-3.02-.49" stroke="#9ea8a1"/><path d="m224.31 201.65 11.48-11.15" stroke="#9b9b91"/><path d="m362.01 195q-2.02 12.64-7.51 24.29" stroke="#74bca9"/><path d="m354.5 219.29q-18.66 3.01-25.19 3.52-8.02.63-12.02 1.44" stroke="#25c6a2"/><path d="m317.29 224.25q1.33-15.62.17-31.25" stroke="#80d3c0"/><path d="m317.46 193 .08-.25" stroke="#74bca9"/><path d="m276.25 184.29q6.45 3.58 11.71 8.71" stroke="#bda896"/><path d="m287.96 193q3.47 3.84 5.08 8.75" stroke="#c8ad9e"/><path d="m293.04 201.75-10.29 4.54" stroke="#b48763"/><path d="m282.75 206.29q-4.16-5.89-9.94-7.36-2.43-.62-3.07 1.8-1.44 5.47-.78 10.02" stroke="#c8b4a3"/><path d="m268.96 210.75-9.46 5.04" stroke="#b48763"/><path d="m259.5 215.79q-2.58-5.49-3.29-11.54" stroke="#c8b4a3"/><path d="m256.21 204.25c-.25-6.95 1.02-14.08 6.5-18.75" stroke="#bda896"/><path d="m293.04 190.75-.08 1" stroke="#e9d0c3"/><path d="m292.96 191.75q-2.78-.48-5 1.25" stroke="#f5e7da"/><path d="m256.21 204.25q-12.18 4.25-23.62 10.75" stroke="#f5eedf"/><path d="m232.59 215-2.52-5.46" stroke="#f5e7da"/><path d="m373.5 215.04-5.08-.75a.76.65 17.1 0 0 -.73.32q-7.39 12.82-9.7 15.12-10.07 10.03-20.44 19.79" stroke="#f3d5cb"/><path d="m337.55 249.52q10.11-14.25 16.95-30.23" stroke="#98c8ad"/><path d="m224.31 201.65c-3.03-2.84-1.22-4.95-.6-8.15" stroke="#fce0d2"/><path d="m317.46 193-23.41 2.14a.53.52 82.4 0 1 -.57-.44l-.52-2.95" stroke="#f3d5cb"/><path d="m232.59 215q5.01 7.25 9.25 12.17c6.28 7.3 13.75 9.81 22.84 12.35a1.82 1.71 42.6 0 0 .96-.01q5.05-1.47 10.04-3.1 3.57-1.18 4.92-3.45" stroke="#fff3e7"/><path d="m280.6 232.96 3.61-.46" stroke="#f8dab7"/><path d="m284.21 232.5.95 1.04a1.51 1.08-10.5 0 0 .85.4c10.43 1.35 23.22-5.58 23.52-16.94.19-7.41-9.97-5.37-14.49-5.25" stroke="#fce0d2"/><path d="m295.04 211.75q-.46-5.11-2-10" stroke="#ecc6a7"/><path d="m317.29 224.25q-1.13 15.56-6.86 30.03-.52 1.32.74.58l3.08-1.82" stroke="#a4dfc4"/><path d="m314.25 253.04-2.88 5.5q-.18.33.14.17l11.45-5.96" stroke="#f3d5cb"/><path d="m322.96 252.75-3.28 14.2q-.12.49.26.16 9.41-8.21 17.61-17.59" stroke="#a4dfc4"/><path d="m349 254.04-10.31 1.13a1.41.55 1.5 0 0 -.89.32l-1.59 1.76" stroke="#b2d1cd"/><path d="m336.21 257.25q-4.83 2.53-7.02 7.45" stroke="#f3d5cb"/><path d="m320.96 274.5-.72.19q-.66.18-.88.37-12.91 11.54-27.89 20.27-.28.16-.67.69-.21.29-.55.52" stroke="#f3d5cb"/><path d="m187.21 304.29c-6.27-3.94-9.75-6.82-11.77-13.68" stroke="#b2d1cd"/><path d="m175.44 290.61q-1.31-6.75-1.4-13.36" stroke="#b2cccd"/><path d="m174.04 277.25c2.45-.23 16.68-3.26 15.67-7" stroke="#fce0d2"/><path d="m189.71 270.25.33-1.25" stroke="#fff3e7"/><path d="m190.04 269q9.71-.3 13.22-9.15" stroke="#f8dab7"/><path d="m203.26 259.85c1.18-5.03 1.5-15-2.26-19.64" stroke="#ecc6a7"/><path d="m201 240.21q-.94-4.41-4.04-7.71" stroke="#c8ad9e"/><path d="m196.96 232.5.73-1.09a1.06.87-40.7 0 0 .15-.87q-1.81-5.16-6.61-7.29" stroke="#f5e7da"/><path d="m191.23 223.25q-2.7-.55-1.11-2.16a.85.49-41.4 0 0 .28-.82q-.18-.29-.65-.31" stroke="#9ea8a1"/><path d="m189.75 219.96c1.99-14.66-25.68-4.83-17.5 2" stroke="#fce0d2"/><path d="m172.25 221.96c-8.32 2.57-13.27 10.15-17.28 18.1" stroke="#9ea8a1"/><path d="m149.42 206.08q12.46-7.84 27.24-9.44" stroke="#92c1b8"/><path d="m197.75 209.04q12.24 5.18 25.22 8.24 1.87.44.64-1.05-.73-.89-2.15-1.98" stroke="#a4dfc4"/><path d="m227.5274 243.1615a7.97 5.04-28.3 0 0 -9.4068-.6591 7.97 5.04-28.3 0 0 -4.628 8.2161 7.97 5.04-28.3 0 0 9.4068.6591 7.97 5.04-28.3 0 0 4.628-8.2161" stroke="#fce0d2"/><path d="m254.65 268.44q-10.42 1.52-17.4 9.02" stroke="#fff3e7"/><path d="m237.25 277.46q-2.09 1.26-3.27 3.35a1.01 1-42.1 0 0 -.05.9q1.4 3.4 5.42 4.7" stroke="#dab3af"/><path d="m239.35 286.41c8.52 3.58 16.95 3.92 22.33-4.89q3.54-5.77 2.65-13.03" stroke="#efc9c0"/><path d="m264.33 268.49q-5.29-1.08-9.68-.05" stroke="#dab3af"/><path d="m264.33 268.49c-.18 1.83-.32 2.69-2.29 3.05-7.84 1.45-16.16 9.41-22.69 14.87" stroke="#c9908c"/><path d="m237.25 277.46.75 1.11a1.11.87-12.1 0 0 .82.4q11.8.42 15.83-10.53" stroke="#dabab3"/><path d="m282.75 206.29q.08 5.7-2.32 10.92a.98.98 23.3 0 1 -1.26.5q-5.86-2.33-10.21-6.96" stroke="#eccdac"/><path d="m295.04 211.75q.58 7.15-2.58 13.5" stroke="#e9b997"/><path d="m292.46 225.25q-3.18-11.21-14.02-5.81-1.36.67-3.24 2.84" stroke="#e4b47c"/><path d="m275.2 222.28q-4.46.49-.95 3.76" stroke="#eccdac"/><path d="m274.25 226.04q.05 3.78 2.96 6.21" stroke="#e4b47c"/><path d="m277.21 232.25c-8.29-1.57-14.75-8.99-17.71-16.46" stroke="#eccdac"/><path d="m277.21 232.25 3.39.71" stroke="#f8e1bb"/><path d="m284.21 232.5q5.26-2.32 8.25-7.25" stroke="#f5cea7"/><path d="m189.75 219.96q-9-.77-17.5 2" stroke="#9b9b91"/><path d="m274.25 226.04q2.94-.84.95-3.76" stroke="#f8e1bb"/><path d="m322.96 252.75q-.18-2.7 1.09-5.98.17-.43-.07-.7a.69.48-38.6 0 0 -.82.05l-8.91 6.92" stroke="#98c8ad"/><path d="m191.23 223.25q-.09 2.72-2.48 1.79" stroke="#93a299"/><path d="m188.75 225.04q-8.14-1-15.04 3.21" stroke="#66695d"/><path d="m173.71 228.25c-8.89 5.83-13.69 17.82-15.42 28" stroke="#93a299"/><path d="m158.29 256.25-.33.75" stroke="#9b9b91"/><path d="m157.96 257-.46-.04" stroke="#439b83"/><path d="m155.21 251.5q-.15-2.13-.25-4.27c-.05-.87-.81-1.68-1.25-.23" stroke="#92918a"/><path d="m196.96 232.5q-3.42-4.5-8.21-7.46" stroke="#bda896"/><path d="m201 240.21q-4.51 3.28-9.96 4.29" stroke="#b48763"/><path d="m191.04 244.5-7.62-5.65q-1.3-.96-1.36.73l-.31 9.63" stroke="#c8b4a3"/><path d="m181.75 249.21-7.96 4.54" stroke="#b48763"/><path d="m173.79 253.75-2.33-5.5" stroke="#c8b4a3"/><path d="m171.46 248.25q-3.16-10.53 2.25-20" stroke="#bda896"/><path d="m171.46 248.25q-5.67 3.01-11.54 7.51" stroke="#f5eedf"/><path d="m159.92 255.76q-.8-.7-1.63.49" stroke="#f2daca"/><path d="m191.04 244.5-.54 9.46" stroke="#eccdac"/><path d="m190.5 253.96-1 .33" stroke="#f8e1bb"/><path d="m189.5 254.29-7.75-5.08" stroke="#eccdac"/><path d="m203.26 259.85q-.75-1.45-1.52-2.74c-2.15-3.57-7.56-3.94-11.24-3.15" stroke="#e4b47c"/><path d="m173.79 253.75q4.5 10.01 14.46 14.54" stroke="#eccdac"/><path d="m188.25 268.29 1.79.71" stroke="#f8e1bb"/><path d="m189.71 270.25c-4.5-.05-9.01.23-13.13-1.81q-9.5-4.71-16.66-12.68" stroke="#fce7d7"/><path d="m189.5 254.29-3.5 4.5" stroke="#e4b47c"/><path d="m186 258.79q-1.92-.33-2.93 1.1a1 .95 53.3 0 0 -.11.9q.65 1.8 2.54 2.5" stroke="#eccdac"/><path d="m185.5 263.29q.92 2.72 2.75 5" stroke="#e4b47c"/><path d="m185.5 263.29q3.05-2.1.5-4.5" stroke="#f8e1bb"/><path d="m334.79 260.5q.25-1.81 1.42-3.25" stroke="#a6bab6"/><path d="m174.04 277.25c0-3.57-.24-7.01-3.41-9.29q-3.61-2.58-7.61-5.15" stroke="#afbfbd"/><path d="m163.02 262.81-5.06-5.81" stroke="#a1d3b4"/><path d="m163.02 262.81q2.19 10.48 6.71 20.21.43.94-.55.61-9.99-3.41-19.14-8.88" stroke="#57bfaf"/><path d="m150.04 274.75-10.54-6.46" stroke="#37b49a"/><path d="m150.04 274.75q-1.22 2.25-1.33 3.91" stroke="#45a1a2"/><path d="m148.71 278.66-1.5 4.09" stroke="#44a6a2"/><path d="m147.21 282.75c-6.65-3.85-13.58-14.04-17.17-19" stroke="#12a895"/><path d="m175.44 290.61q-13.69-5.27-26.73-11.95" stroke="#65b1b7"/><path d="m147.21 282.75c-.63 2.88-4.28 15.15-2.71 16.96" stroke="#32b8aa"/><path d="m142.58 304.85q-4.18-.01-7.49 1.72a.92.91 69.7 0 1 -1.31-.61q-2.15-9.3-5.73-18.05" stroke="#25c6a2"/><path d="m324.22 281.09q4.69 7.44 4.97 15.84" stroke="#a6bab6"/><path d="m329.19 296.93c-.45 5.74 1.59 11.58.52 17.57" stroke="#74bca9"/><path d="m329.71 314.5q-.56.46-1.05.11a.86.65-67.3 0 1 -.22-.84q.92-3.6.11-7.05c-.83-3.57-.12-7.74-5.8-7.54q-8.79.31-14.4 6.66-1.49 1.69-1.11 3.91 1.24 7.21 6.01 12.46" stroke="#f3d5cb"/><path d="m313.25 322.21-1.25.58" stroke="#d4d6d0"/><path d="m312 322.79-4.07-5.2" stroke="#74bca9"/><path d="m307.93 317.59-7.68-13.63" stroke="#93aaa3"/><path d="m300.25 303.96q-.22-2.14-2.21-2.71" stroke="#a6bab6"/><path d="m469.33 311.84q.06-.08.33-.1a.27.27-7 0 0 .26-.33l-3.88-20.16" stroke="#e7878b"/><path d="m481.5 285.79 3.06 4.42a1.53 1.5 57.3 0 0 2.01.46l3.81-2.27a1.3 1.23-27 0 0 .56-1.58l-1.68-3.94" stroke="#f399a5"/><path d="m381.5 282.54-1.2 8.97a1.32.88 83.7 0 1 -.42.81q-1.37.99-3.84.08a.93.89 16.3 0 1 -.59-1.02l1.09-5.38a.9.86-79.9 0 0 -.7-1.06q-8.6-1.36-17.34-2.51c-5.49-.72-8.06 1.16-12.29 4.26q-1.72 1.26-4.46.02" stroke="#61d4c5"/><path d="m341.75 286.71-2-1.04a.85.59 21.8 0 1 -.48-.72q.07-.47.76-.41" stroke="#93d2d2"/><path d="m341.75 286.71q-.25.12-.45.35a.55.47 40 0 0 .12.73c.91.74 7.2 6.25 1.51 5.22q-7.87-1.42-13.74 3.92" stroke="#32b8aa"/><path d="m395.9 283.63q-1.98 11.29-2.86 22.62" stroke="#6dd8c7"/><path d="m393.04 306.25-1.79 11.71" stroke="#61d4c5"/><path d="m390.96 319.5c-4.18 1.08-7.48-.16-11.35-.62-.82-.1-5.51-1.28-5.92-.67a.95.5 52.7 0 0 .14.85l1.63 2.69" stroke="#20a898"/><path d="m375.46 321.75 5.21 8.93" stroke="#32b8aa"/><path d="m380.67 330.68q-.15.17-.17.28" stroke="#61d4c5"/><path d="m380.5 330.96q-23.24 9.73-41.18 27.37a4.42 4.41 17.2 0 1 -2.29 1.2q-12.08 2.34-22.78 9.76" stroke="#6ddac9"/><path d="m311.18 362.63q-1.98-5.98-1.86-12.79a1.18 1.17-20.8 0 1 .38-.84q7.39-6.72 15.42-10.43 3.14-1.45 4.53 1.59l3.97 8.68a.98.51 73.7 0 0 .52.54q.27.06.43-.16a1.13.6 62 0 0 0-.93l-3.76-10.36q-.78-2.15 1.18-3.37 10.77-6.71 23.63-8.67c.38-.06.53-.1.55-.47a.63.4 3.5 0 0 -.6-.43c-3.26-.22-6.22.97-9.13 1.07-7.35.23-10.68 1.13-16.04 6.11" stroke="#20a898"/><path d="m330.4 332.17-.19-1.17" stroke="#61d4c5"/><path d="m330.21 331-.5-16" stroke="#6ddac9"/><path d="m329.71 315v-.5" stroke="#80d3c0"/><path d="m346.55 294.51c5.42 9.6 11.5 18.07 14.81 29.26a1.15.93 89.7 0 0 .58.71c2.3.95-.2-6.01-.85-7.74-3.09-8.11-8.57-15.88-14-22.59-1.18-1.46-.78-.05-.54.36" stroke="#20a898"/><path d="m367.34 328.13q-8.42 3.5-15.63 9.15a.99.84-23.7 0 0 -.39.8q.1 1.27 1.2 1.76a.91.75-49.1 0 0 .85-.14q7.08-5.37 14.93-9.44a.89.78-15.5 0 0 .48-.73q-.02-.83-.56-1.31a.92.71-31.7 0 0 -.88-.09" stroke="#6ddac9"/><path d="m401 285.96q-1.22.98-1.29 2.54" stroke="#ecf1e9"/><path d="m399.71 288.5q-1.71 2.09-.75 4.5" stroke="#e0dad2"/><path d="m398.96 293 .33 2.25" stroke="#ecf1e9"/><path d="m399.29 295.25q.18 3.22-2.13 4.97a.5.49-35.7 0 0 -.12.68q1.72 2.53.67 5.6" stroke="#e0dad2"/><path d="m397.71 306.5-4.67-.25" stroke="#cdf1ee"/><path d="m421.98 288.29q-3.09 4.08-1.17 6.68c2.16 2.91 7.59 2.88 11.19 2.71q7.28-.37 8.04-7.09a.67.57-87.3 0 1 .54-.58l.92-.05" stroke="#fce0d2"/><g stroke="#f3d5cb"><path d="m463.25 291.54q1.13-.02 1.98.61a.98.8-71.3 0 1 .31.83q-.77 6.73.34 13.42c.29 1.74-.24 2.82-1.24 4.11a1.4 1.1 9.1 0 1 -.81.45q-2.11.4-3.58 2"/><path d="m411.25 313.96q-3.45-1.57-7.29-1.87a1.2 1.09-15.3 0 1 -.81-.41q-2.57-3.15-3.03-7.18-.05-.48-.34-.91c-1.97-3.01 1.01-4.9-.49-8.34"/><path d="m398.96 293 .75-4.5"/></g><path d="m397.25 314.04-1.1-3.81a1.35 1.01 56.9 0 1 .06-.94l1.5-2.79" stroke="#d4d6d0"/><path d="m329.71 315q-1.05-.08-1.64.6a1.49.72-59.9 0 1 -.77.52c-1.83.27-4.28-.53-5.31 1.82a.86.81-80.3 0 1 -.67.51q-2.6.26-4.58 2.33" stroke="#ecf3eb"/><path d="m316.74 320.78q-1.37 1.2-3.49 1.43" stroke="#e0ede7"/><path d="m300.25 303.96q-.93 2.38.25 4.75" stroke="#52a6a5"/><path d="m300.5 308.71q-1.82 2.33-4.46 3.54" stroke="#32b8aa"/><path d="m296.04 312.25q-.37-1.33.32-2.22a.82.49-47.2 0 0 .16-.78q-.16-.25-.44-.3" stroke="#93d2d2"/><path d="m307.93 317.59q-4.76-3.55-7.43-8.88" stroke="#20a898"/><path d="m312 322.79q5.96 7.83 14.25 13.17" stroke="#61d4c5"/><path d="m326.25 335.96q-9.22 1.38-15.79 7.41c-3.78 3.47-6.5 8.89-9.23 13.6q-1.09 1.89-1.5-.25-2.62-13.74-3.6-27.95-.05-.64-.42-.24-.17.17-.2.46-2.1 17.79-1.05 34.01" stroke="#20a898"/><path d="m294.46 363q-8.79-4.27-16.76-9.96-.72-.52-1.41-.04" stroke="#6dd8c7"/><path d="m280.47 340.26 6.53 2.3a.73.57 26.8 0 0 .76-.15q3.19-4.03-1.68-5.4a1.63 1.63 16.8 0 1 -1.11-2.07q1.79-5.59 3.04-12.19c.89-4.74 5.17-7.11 8.03-10.5" stroke="#61d4c5"/><path d="m221 321.96c-1.56 3.03-5.03 9.52-8.8 3.45a.9.62 65.8 0 0 -.75-.45c-.3.04-1.45 4.4-4.4 5.21a.99.88 55.5 0 1 -.86-.21q-2.2-1.9-4.9-2.71" stroke="#fce0d2"/><path d="m330.21 331-3.04 1.74a1.09.88-44.7 0 1 -.89.09q-6.51-2.68-10.93-8.17c-1.63-2.03 1.02-1.85 1.88-.93q7.26 7.74-.49-2.95" stroke="#cdf3f0"/><path d="m384.24 323.2-8.78-1.45" stroke="#52a6a5"/><path d="m330.4 332.17-.65 4.02a.82.7 89.8 0 1 -.54.64q-1.63.37-2.96-.87" stroke="#80c2bf"/><path d="m388.21 328.75-7.54 1.93" stroke="#93d2d2"/><path d="m230.21 329.75c-1.03 3.74-7.68 6.09-8.19.17a.92.91 77.8 0 0 -1.22-.79q-2.78.98-5.17 2.87c-3.28 2.59-6.5 2.89-9.44 6.29a1.1.98 62.4 0 0 -.22.87q.76 3.97-2.45 6.11-.42.28-.38-.23.29-4.58-3.64-6.49a.5.43 29.2 0 1 -.24-.66c.6-.92 2.5 1.85 4.46-.03a1.21 1.06 70.3 0 0 .34-.86q-.04-5.19-3.06-9.46" stroke="#fce0d2"/><path d="m305.67 368.26-11.21-5.26" stroke="#8cc6c1"/><path d="m228.25 352.29q-5.82.59-8.06 5.9-.84 1.98 1.06 3.1" stroke="#fce0d2"/><path d="m221.25 361.29-7.46 7.71" stroke="#f39ea2"/><path d="m211.52 350.11q2.83 1.73 5.47 1.4 2.17-.28 2.94-2.31c.9-2.36 4.01-9.86.99-11.4a1.29 1.2-38.1 0 0 -.94-.08q-6.71 1.99-9.68 8.35-1.2 2.57 1.22 4.04" stroke="#fce0d2"/><path d="m397.38 339.17-10.51-5.96a.41.39-66.6 0 0 -.58.24c-1.45 5-.86 9.08-1 13.8" stroke="#88ccc9"/><path d="m385.29 347.25q-.39-8.75-4.79-16.29" stroke="#cdf3f0"/><path d="m385.29 347.25.75 29.5" stroke="#94d2cd"/><path d="m386.04 376.75q.19.64.05 1.27a.6.54 9.9 0 1 -.65.41c-9.69-1.23-19.23-3.22-28.94-4.39" stroke="#6ddac9"/><path d="m356.5 374.04-4.71-.04" stroke="#94d2cd"/><path d="m351.79 374-4.7-5.93a.43.38 46.6 0 0 -.63-.06c-1.67 1.95 2.18 8.34 3.33 10.24" stroke="#cdf3f0"/><path d="m349.79 378.25-3.03 18.26a.84.82-70.2 0 1 -1.24.6l-9.76-5.91" stroke="#94d2cd"/><path d="m412.03 348.45q-3.09-.39-5.96-1.45c-5.76-2.13-9.64-2.9-14.66.67a1.81 1.81 31.1 0 0 -.75 1.25q-1.62 12.41-2.9 24.82-.15 1.49-1.72 3.01" stroke="#28b3a2"/><path d="m484.75 357.04 2.29 6.96" stroke="#61d4c5"/><path d="m487.04 364q2.69 8.56 3.88 17.46" stroke="#6ddac9"/><path d="m490.92 381.46-2.17.33" stroke="#61d4c5"/><path d="m488.75 381.79c-2.24-.4-27.04-3.4-26.25-1.31a.87.65-2.5 0 0 .66.45q12.91 1.73 25.55 4.82" stroke="#25b3a2"/><path d="m488.71 385.75.33 1.75" stroke="#61d4c5"/><path d="m489.04 387.5q.86 8.22.96 22.25.03 4.27-3.75 2.79" stroke="#6ddac9"/><path d="m486.25 412.54q-12.6-1.69-24.71-5.53a.62.42 29.4 0 0 -.5.04q-.12.09-.19.21a.63.42 27.2 0 0 .37.67q11.71 6.02 24.16 10.34" stroke="#25b3a2"/><path d="m485.38 418.27q-.5 10.33-4.92 18.98" stroke="#6ddac9"/><path d="m480.46 437.25q-2.11.03-4.25-.96" stroke="#61d4c5"/><path d="m476.21 436.29c-7.59-3.9-15.54-5.63-23.56-10.75a1.02.72 42.9 0 0 -.89-.12c-2.09 1.09 13.97 11.32 15.34 12.07 2.23 1.22 3.72 2.74 5.69 4.26" stroke="#25b3a2"/><path d="m472.79 441.75q-5.65 12.37-13.08 23.75" stroke="#6ddac9"/><path d="m459.71 465.5q-1.79.99-2.24-1.07" stroke="#61d4c5"/><path d="m457.47 464.43q-8.42-7.38-17.21-14.41-.98-.78-.29.34 5.71 9.32 13.07 17.39" stroke="#25b3a2"/><path d="m453.04 467.75c-3.18 3.79-15.17 15.61-20.21 15.06q-2.13-.23-3.24-2.41" stroke="#6ddac9"/><path d="m429.59 480.4q-8.84-9.1-16.61-22.12-.44-.73-.81-.21a1.07.75 56.4 0 0 -.02.91q5.15 12.44 12.39 23.77" stroke="#25b3a2"/><path d="m424.54 482.75q-6.81 4.32-14.43 2.51" stroke="#6ddac9"/><path d="m349.02 411.14q.78-2.79-.96-4.84a1.28 1.19 27.1 0 1 -.31-.86c.14-3.1-.79-5.13.09-8.14q3.5-11.96 8.66-23.26" stroke="#28b3a2"/><path d="m227.04 356-5.29 4.96" stroke="#e0989c"/><path d="m221.75 360.96-.5.33" stroke="#f09192"/><path d="m302.29 373.25q-1.81-2.92-4.67-4.8a.39.25-76 0 1 -.11-.32q.02-.11-.02-.23a.6.44-11 0 0 -.59-.28q-4.44.53-7.53-2.61a1.39 1.38 70.2 0 0 -.84-.4q-4.97-.53-7.17-4.75a1.32 1.1 80.9 0 0 -.69-.6q-2.38-.77-4.63-.01" stroke="#ecf1e9"/><path d="m245.54 366.25-4.14 7.14" stroke="#e3a4ac"/><path d="m241.4 373.39q-9.72-4.89-18.58-11.02a1.71.72 78.4 0 1 -.53-.77q-.17-.41-.54-.64" stroke="#d6566c"/><path d="m493.73 364.31-6.69-.31" stroke="#cdf3f0"/><path d="m285.24 401.12q-1.35-1.39-1.55-2.54-.31-1.72-3.67-1.52-5.31.3-8.02 4.73" stroke="#fce0d2"/><path d="m234 383.96 7.4-10.57" stroke="#f39ea2"/><path d="m270.04 370.46c.92.34 8.69 3 8.36 2.06a.85.69 4.8 0 0 -.47-.45q-3.66-1.36-4.91-5.42" stroke="#f3d5cb"/><path d="m493.88 382.13q-2.26.55-2.96-.67" stroke="#cdf3f0"/><path d="m351.79 374-2 4.25" stroke="#88ccc9"/><path d="m488.75 381.79-.04 3.96" stroke="#86cdc9"/><path d="m494.21 387.75c-1.13.26-4.79-.57-5.17-.25" stroke="#cdf3f0"/><path d="m495.25 394.29q-.41 6.97-.28 14.08c.03 1.77-.57 4.21-2.92 2.92a.67.67 16.7 0 0 -.99.53q-.89 11.2-1.33 20.67-.1 2.22-1.67 4.34a1.29 1.11 10.7 0 1 -.8.46q-2.07.34-3.55 1.71" stroke="#e0dcd4"/><path d="m480.75 438.04-.29-.79" stroke="#cdf3f0"/><path d="m485.38 418.27.87-5.73" stroke="#92d3cd"/><path d="m499.98 423.04q-6.74 8.27-11.99 17.51" stroke="#f3d5cb"/><path d="m476.21 436.29q-2.18 2.16-2.96 4.92" stroke="#86cdc9"/><path d="m473.25 441.21-.46.54" stroke="#92d3cd"/><path d="m478.79 443.75-5.54-2.54" stroke="#cdf3f0"/><path d="m477.29 450.25-8.92 17.37q-.94 1.83-2.65 1.3l-3.97-1.21" stroke="#e0dcd4"/><path d="m461.75 467.71-2.04-2.21" stroke="#cdf3f0"/><path d="m457.47 464.43q-2.93.85-3.97 3.03" stroke="#86cdc9"/><path d="m453.5 467.46-.46.29" stroke="#92d3cd"/><path d="m490.29 457q-.99 5.01-3.5 9.43" stroke="#e3ddd5"/><path d="m486.79 466.43c-4.56 3.34-8.75 6.71-13.57 9.83q-7.22 4.66-14.11 9.97" stroke="#f3d5cb"/><path d="m447.46 480.25q5-5.06 10.79-9.21" stroke="#e0dcd4"/><path d="m458.25 471.04 3.5-3.33" stroke="#d4d6d0"/><path d="m495.29 459.25-3.65 9.72a1.63 1.01-15.6 0 1 -.64.7c-4.25 2.59.73 3.21.77 4.79a.74.48-8.8 0 1 -.6.54l-5.76 1.26a.54.53 78.2 0 0 -.41.64q.27 1.28 1.1 2.46a.71.71 43.8 0 1 .02.81l-3.39 5.14a1.69 1.39 1.6 0 1 -.75.58l-5.44 2.08a.89.81-9.3 0 0 -.55.69q-.11 1.25 1.22 1.8a.81.64 14 0 1 .51.66q-.03 1.23-1.22 1.67" stroke="#70dbca"/><path d="m470.21 490.5q11.32-10.02 16.58-24.07" stroke="#eff4ec"/><path d="m429.59 480.4-5.05 2.35" stroke="#92d3cd"/><path d="m496.5 459.79c-.81 3.43-2.07 9.19-4.95 11.47a.38.37-44.9 0 0 -.01.59q1.86 1.46 2.6 3.66" stroke="#6ddac9"/><path d="m494.14 475.51q-3.26 1.42-6.63 1.75a.32.3 73.4 0 0 -.23.46l.67 1.36a1.04.86-46.7 0 1 -.06.9c-1.92 3.4-5.67 7.15-4.18 11.19q.75 2.02-1.33 1.45-2.91-.79-3.68 1.48" stroke="#76ddcc"/><path d="m500 476.31-5.86-.8" stroke="#e2fcf8"/><path d="m458.25 471.04-4.75-3.58" stroke="#cdf3f0"/></g><path d="m384.5 59.54q-4.8 2.55-8.67 6.45a1.12.37 1.8 0 1 -.74.22l-.44.04a1.01.55-75.2 0 0 -.63.66c-1.24 3.29-8.79 8.12-11.31 9.87a.74.56-30.6 0 0 -.32.78q.24.56 1.13.43c12.57-1.93 27.28 4.04 38.11 10a.6.48 28.5 0 0 .76-.14q.27-.5-.19-1.09-7.29-9.45-18.35-16.01-.43-.25.01-.46 11.73-5.7 21.16-14.75c9.79-2.21 36.53 15.16 45.27 21.46-1.29 7.8 4.89 17.87 8.09 24.94 10.22 22.56 15.97 46.75 16.53 71.48.52 22.9-.28 45.59-2.67 68.37-.23-.4-1.91-5.82-2.02-5.78a1.2.56-79.9 0 0 -.54.77q-.81 2.55-2.77 4.84-9.86-12.09-21.12-22.87l1.14-15.24c.1-4.41.21-8.48-.39-13q-.6-4.57-1.02-9.18c-.09-.95-.61-1.61-.98.05-.7 3.12-3.44 14.74-6.29 15.91q-20.17-13.79-37.46-31.04l-2.27-2.81q-10.17-12.51-21-30.44-12.29-20.35-15.3-46.22a.76.75 80.6 0 0 -.9-.65q-.05 0-.18.18a.7.63 67.1 0 0 -.15.43q.02 7.62 0 15.22c-.01 4.33-2.93 9.01-4.79 12.84a1.44 1.19 54.3 0 0 -.06.93l4.29 15.42q-7.82 11.61-18.32 21.02l-14.14-.58a1.16 1.14 71 0 1 -.84-.42c-6.32-7.43-12.38-15.58-19.16-21.96-12.35-11.63-22.65-19.02-39.45-31.22q-4.02-2.91-6.96-4.47a.9.57 37.6 0 0 -.75-.07q-.34.21.09.65 16.75 17.23 24.75 26c7.88 8.64 11.85 15.59 16.92 23.38q2.56 3.92-1.96 2.7-12.03-3.25-22.25-9.68c-.5-.31-1.16-.18-.59.51q11.35 13.9 28.47 18.58 1.64.45 5.26 1.99c3.77 1.61 8.43 1.36 11.75 1.92q3.07.52 6.23.7a.5.45 6.5 0 1 .46.53l-.4 2.52q-15.8 13.84-35.49 21.13c-.68.26-1.05.82-1.76 1.12l-2.41-2.61a.27.25 57.3 0 1 .07-.42q.95-.38 1.29-1.32a.56.52 20.9 0 0 -.33-.67c-16.63-7.04-36.92-2.06-51.43 7.3q-20.54-2.59-38.94-10.78-3.08-3.72-7.91-6.88-1.06-.69-.52.46c4.42 9.53 8.37 18.34 15.14 27.45a1.39 1.06 71.6 0 0 .79.54l.71.14.54.79-11.54 9.54q-11.19-4.86-21.09-12.4l4.87-1.37q.71-.2.87-.36c1.86-1.87-10.7-2.56-11.5-2.67q-19.07-17-25.44-41.99-1.43-4.27-2.1-8.73-.07-.49-.14.16-.93 8.6 1.57 16.82c-.2 4.83-.71 9.63-.69 14.42q.04 12.74-.92 25.7-3.48-9.77-5.94-19.83-.05-.21-.16-.01-.18.31-.33.02-.09-.18-.1.02-.71 20.31 8.05 38.51l7.84 26.67q-2.58 3.55 1.17 3 .25 2.43 1.5 4.5.41 3.02 2.29 5.46c-1.14 2.59-14.85 9.55-18 11.33l-8.96-6.54-6.5-5.5q-11.57-15.81-19.21-33.88l-4.54-20.37q15.19.78 29.89-2.92a1.05.66 39.9 0 1 .61.08l.31.15q.48.23.41-.36-2.77-22.04.07-44.18a.36.35 87.1 0 0 -.43-.39c-7.08 1.58-13.91 3.33-21.2 3.66a.93.93 2.4 0 1 -.96-1.04c2.19-17.08 6.45-35.95 15.94-50.57q.83-1.29-.43-1.72l3.38-2.73a.73.72-50.5 0 0 -.11-1.21q-15.08-7.9-22.46-22.62 6.76-7.89 11.28-17.15a.9.78-75.7 0 1 .72-.5h.9c.19 14.5 6.18 25.95 14.62 37.29q7.73 3.19 11.01-4.29.21-.48.59-.77c16.21-12.46 41.07-26.79 60.63-28.91q6.63-.72 15.92-1.04a1.46 1.29 19.9 0 0 .89-.35l18.24-17.11a1.47 1.21-64.3 0 1 .84-.39c4.78-.38 9.56-.88 14.33-.9 28.11-.17 52.25-1.6 76.23 7.28 10.68 3.96 17.32 8.97 25.26 18.12.68.78 1.19.72 1.27-.43 8.82-4.06 15.72-10.15 19.69-19.18q5.29-12.01 3.66-25.6c9.47-7.05 22.13-13.11 34.17-13.76a.41.41-83.6 0 1 .42.53c-5.88 19.28-17.21 34.8-31.48 48.55zm-112.33 14.27q-3 3.91-5.85 7.14c-.8.91-.8 1.82.46 2.22a1.78 1.13-.8 0 1 .8.49q2.87 3.34 6.77 5.81a.49.49-58.1 0 0 .68-.16q2.4-3.94 3.89-9.08a2.29 1.81 31.6 0 0 -.77-2.11l-4.94-4.36a.74.68 39.5 0 0 -1.04.05zm162.12 2.31c-.4 1.28-.61 2.16.26 3.34q2.39 3.22 4.84 6.47.37.5.41-.09l.32-5.63a1.1.84 25.6 0 0 -.42-.82l-4.47-3.58a.61.59-62.5 0 0 -.94.31zm-214.7 7.54q.88 1.33 2.17 2.07.49.28.32-.26-.5-1.58-2.23-2.15-.62-.2-.26.34zm211.02 3.68-6.41 8.98a.73.65 45.5 0 0 .04.82q5.98 8.16 10.2 17.08.39.83.72-.02 3.09-7.98 4.44-16.4a1.24 1.24 32.7 0 0 -.2-.9q-3.63-5.27-7.85-9.61a.62.6 40.9 0 0 -.94.05zm-168.23 30.06a.21.21 41.7 0 0 .28-.01q3.87-3.97 6.47-9.21a.74.74 37.7 0 0 -.11-.83q-6.49-7.41-14.18-13.64a.56.55 41.7 0 0 -.74.04l-8.74 8.78a.8.78 41.9 0 0 .08 1.17zm144 44.25c7.35-5.21 14.66-12.85 20.18-20.02a.86.82 51.7 0 0 .08-.85q-7.73-16.56-17.61-31.38a1.04 1.04 48.3 0 0 -1.66-.1q-8.33 9.84-20.36 14.2-1.76.64-3.08-.69-6.41-6.46-10.11-15.32a.61.46 69.7 0 0 -.61-.39c-.49.15-.54.58-.47 1.07q1.94 13.47 9.01 25.07c6.61 10.84 12.61 20.21 22.84 28.36a1.49 1.48 46.4 0 0 1.79.05zm-153.89-33.59-20.56-14.39a.75.72 46 0 0 -.82-.03c-15.19 9.65-30 18.85-46.8 25.54a.47.46 66.8 0 0 -.25.63c5.2 10.94 9.84 21.35 16.93 31.05a.53.53-34.8 0 0 .73.13q10.1-6.91 20.1-13.98c12.43-8.79 21.6-17.19 30.77-28.26a.47.47 36.8 0 0 -.1-.69zm-82.91 53.51c5.4-2.9 12.56-5.65 16.97-9.47a1.34 1.3 55.9 0 0 .28-1.6l-11.66-22.43a.49.48 62.1 0 0 -.66-.21q-8.61 4.59-18.29 6.8a.42.42-17.5 0 0 -.3.57q5.65 13.68 13.04 26.17a.47.47 60.3 0 0 .62.17zm55.23-23.79c-5.28 1.93-9.23 9.04-11.57 13.83a.75.63-57.3 0 0 .11.82q.82.74 1.97-.11c13.86-10.22 29.3-17.82 46.68-22.54q1.24-.34.89-.87a1 .65-15.6 0 0 -.86-.27q-19.13 2.55-37.22 9.14z" fill="#00ba9d"/><path d="m118.21 60.5h-.9a.9.78-75.7 0 0 -.72.5q-4.52 9.26-11.28 17.15c-10.79-21.38-2.41-45.01 16.21-59.11 1.24-.94 8.23-6.71 9.26-6.51a.39.34-64.4 0 1 .16.6c-4.54 6.16-8.2 13.12-9.63 20.68q-.67 3.55-1.36 7.1c-1.26 6.5-1.3 12.97-1.74 19.59z" fill="#49d2a6"/><path d="m381.39 24.22q1.63 13.59-3.66 25.6c-3.97 9.03-10.87 15.12-19.69 19.18q-1.21-6.41-.87-12.83c3.05-13.04 13.42-24.73 24.22-31.95z" fill="#49d2a6"/><path d="m357.17 56.17q-.34 6.42.87 12.83c-.08 1.15-.59 1.21-1.27.43-7.94-9.15-14.58-14.16-25.26-18.12-23.98-8.88-48.12-7.45-76.23-7.28-4.77.02-9.55.52-14.33.9a1.47 1.21-64.3 0 0 -.84.39l-18.24 17.11a1.46 1.29 19.9 0 1 -.89.35q-9.29.32-15.92 1.04c-19.56 2.12-44.42 16.45-60.63 28.91q-.38.29-.59.77-3.28 7.48-11.01 4.29c23.91-43.21 74.14-70.94 123.19-71.74 9.94-.17 20.43-.37 29.84.78 11.89 1.45 22.75 4.67 34.31 7.53 3.26.8 6.88 2.76 9.18 3.77q15.11 6.65 27.82 18.04z" fill="#64b6b7"/><path d="m405.02 55.54q-9.43 9.05-21.16 14.75-.44.21-.01.46 11.06 6.56 18.35 16.01.46.59.19 1.09a.6.48 28.5 0 1 -.76.14c-10.83-5.96-25.54-11.93-38.11-10q-.89.13-1.13-.43a.74.56-30.6 0 1 .32-.78c2.52-1.75 10.07-6.58 11.31-9.87a1.01.55-75.2 0 1 .63-.66l.44-.04a1.12.37 1.8 0 0 .74-.22q3.87-3.9 8.67-6.45-.12.73.5.46 9.63-4.27 20.02-4.46z" fill="#24968d"/><path d="m272.17 73.81a.74.68 39.5 0 1 1.04-.05l4.94 4.36a2.29 1.81 31.6 0 1 .77 2.11q-1.49 5.14-3.89 9.08a.49.49-57.5 0 1 -.68.16q-3.9-2.47-6.77-5.81a1.78 1.13-.8 0 0 -.8-.49c-1.26-.4-1.26-1.31-.46-2.22q2.85-3.23 5.85-7.14z" fill="#49d2a6"/><path d="m434.29 76.12a.61.59-62.5 0 1 .94-.31l4.47 3.58a1.1.84 25.6 0 1 .42.82l-.32 5.63q-.04.59-.41.09-2.45-3.25-4.84-6.47c-.87-1.18-.66-2.06-.26-3.34z" fill="#49d2a6"/><path d="m450.29 77c15.14 10.15 23.63 21.58 31.93 37.48 7.86 15.06 13.43 32.89 14.26 49.88.9 18.52 3.1 42.42-6.74 59.96q-6.73 12-14.69 22.45a1.11 1.11 52.1 0 1 -1.9-.24q-1.08-2.53-.91-4.74c2.39-22.78 3.19-45.47 2.67-68.37-.56-24.73-6.31-48.92-16.53-71.48-3.2-7.07-9.38-17.14-8.09-24.94z" fill="#64b6b7"/><path d="m219.59 83.66q-.36-.54.26-.34 1.73.57 2.23 2.15.17.54-.32.26-1.29-.74-2.17-2.07z" fill="#49d2a6"/><path d="m398.52 163.44c-3.07 21.81-11.74 39.61-23.74 58.39l-4.65 4.97q-.27.29-.12-.07 2.41-5.63 3.49-11.69c3.3-10.36 2.29-21.52-8.6-26.87a.94.92-70.1 0 0 -1.3.63l-1.59 6.2q-.71-6.3-.11-12.32a.73.73 84 0 0 -.95-.77q-20.11 6.73-40.89 10.91-.53.11-2.52-.07l-.69-4.3c19.11-6.54 35.08-17.41 42.73-36.66 2.76-6.94 3.81-15.18 4.59-22.9q.28-2.8-1.74-.85-.79.77-2 3.11l-4.29-15.42a1.44 1.19 54.3 0 1 .06-.93c1.86-3.83 4.78-8.51 4.79-12.84q.02-7.6 0-15.22a.7.63 67.1 0 1 .15-.43q.13-.18.18-.18a.76.75 80.6 0 1 .9.65q3.01 25.87 15.3 46.22 10.83 17.93 21 30.44z" fill="#24968d"/><path d="m430.61 87.34a.62.6 40.9 0 1 .94-.05q4.22 4.34 7.85 9.61a1.24 1.24 33.2 0 1 .2.9q-1.35 8.42-4.44 16.4-.33.85-.72.02-4.22-8.92-10.2-17.08a.73.65 45.5 0 1 -.04-.82z" fill="#49d2a6"/><path d="m262.38 117.4-16.94-13.7a.8.78 41.9 0 1 -.08-1.17l8.74-8.78a.56.55 41.7 0 1 .74-.04q7.69 6.23 14.18 13.64a.74.74 37.7 0 1 .11.83q-2.6 5.24-6.47 9.21a.21.21 41.7 0 1 -.28.01z" fill="#49d2a6"/><path d="m342.11 152.17q-5.7 6.4-12.57 11.08l.4-2.52a.5.45 6.5 0 0 -.46-.53q-3.16-.18-6.23-.7c-3.32-.56-7.98-.31-11.75-1.92q-3.62-1.54-5.26-1.99-17.12-4.68-28.47-18.58c-.57-.69.09-.82.59-.51q10.22 6.43 22.25 9.68 4.52 1.22 1.96-2.7c-5.07-7.79-9.04-14.74-16.92-23.38q-8-8.77-24.75-26-.43-.44-.09-.65a.9.57 37.6 0 1 .75.07q2.94 1.56 6.96 4.47c16.8 12.2 27.1 19.59 39.45 31.22 6.78 6.38 12.84 14.53 19.16 21.96a1.16 1.14 71 0 0 .84.42z" fill="#24968d"/><g fill="#49d2a6"><path d="m124.5 104.71q1.26.43.43 1.72c-9.49 14.62-13.75 33.49-15.94 50.57a.93.93 2.4 0 0 .96 1.04c7.29-.33 14.12-2.08 21.2-3.66a.36.35 87.1 0 1 .43.39q-2.84 22.14-.07 44.18.07.59-.41.36l-.31-.15a1.05.66 39.9 0 0 -.61-.08q-14.7 3.7-29.89 2.92c-6.71-28.49 1.69-76.27 24.21-97.29z"/><path d="m426.56 141.63c-5.52 7.17-12.83 14.81-20.18 20.02a1.49 1.48 46.4 0 1 -1.79-.05c-10.23-8.15-16.23-17.52-22.84-28.36q-7.07-11.6-9.01-25.07c-.07-.49-.02-.92.47-1.07a.61.46 69.7 0 1 .61.39q3.7 8.86 10.11 15.32 1.32 1.33 3.08.69 12.03-4.36 20.36-14.2a1.04 1.04 48.3 0 1 1.66.1q9.88 14.82 17.61 31.38a.86.82 51.7 0 1 -.08.85z"/><path d="m252.49 128.06a.47.47 36.8 0 1 .1.69c-9.17 11.07-18.34 19.47-30.77 28.26q-10 7.07-20.1 13.98a.53.53-34.8 0 1 -.73-.13c-7.09-9.7-11.73-20.11-16.93-31.05a.47.46 66.8 0 1 .25-.63c16.8-6.69 31.61-15.89 46.8-25.54a.75.72 46 0 1 .82.03z"/><path d="m316.85 188.45q-10.01 1.17-20.21 2.44c-1.1.14-2.36-.3-3.6-.14l-1.54-4.21.79-1.04c.71-.3 1.08-.86 1.76-1.12q19.69-7.29 35.49-21.13 6.87-4.68 12.57-11.08 10.5-9.41 18.32-21.02 1.21-2.34 2-3.11 2.02-1.95 1.74.85c-.78 7.72-1.83 15.96-4.59 22.9-7.65 19.25-23.62 30.12-42.73 36.66z"/></g><path d="m145.46 150.25q-.61 2.59-.17 5.25l-.5 3q-2.5-8.22-1.57-16.82.07-.65.14-.16.67 4.46 2.1 8.73z" fill="#24968d"/><path d="m169.58 181.57a.47.47 60.3 0 1 -.62-.17q-7.39-12.49-13.04-26.17a.42.42-17.5 0 1 .3-.57q9.68-2.21 18.29-6.8a.49.48 62.1 0 1 .66.21l11.66 22.43a1.34 1.3 55.9 0 1 -.28 1.6c-4.41 3.82-11.57 6.57-16.97 9.47z" fill="#49d2a6"/><path d="m213.24 171.61c2.34-4.79 6.29-11.9 11.57-13.83q18.09-6.59 37.22-9.14a1 .65-15.6 0 1 .86.27q.35.53-.89.87c-17.38 4.72-32.82 12.32-46.68 22.54q-1.15.85-1.97.11a.75.63-57.3 0 1 -.11-.82z" fill="#24968d"/><path d="m145.46 150.25q6.37 24.99 25.44 41.99-12.2 3.93-21.65 11.8-.74-14.01-1.36-28.04c-.11-2.56-.75-5.35-.9-8.1q-.32-6.26-1.7-12.4-.44-2.66.17-5.25z" fill="#ffece2"/><path d="m145.29 155.5q1.38 6.14 1.7 12.4c.15 2.75.79 5.54.9 8.1q.62 14.03 1.36 28.04c-1.42 1.42-5.88 5.72-4.42 6.39a.8.64-55 0 0 .82-.24l3.77-4.11q2.22 11.27 3.06 22.17.32 4.08 2.49 11.81-.49 2.18-2.43 3.94l-7.84-26.67q-.18-2.64-.73-5.13c-1.04-4.73-.43-8.9-.79-13.58q.96-12.96.92-25.7c-.02-4.79.49-9.59.69-14.42z" fill="#e7beb4"/><path d="m398.52 163.44 2.27 2.81c-1.09 6.13-.8 12.91-1.78 18.29-4.69 25.97-17.41 47.69-39.73 62.5q10.16-11.17 15.5-25.21c12-18.78 20.67-36.58 23.74-58.39z" fill="#64b6b7"/><path d="m200.54 177c.58 8.29 4.21 14.69 8.21 21.71l-.71-.14a1.39 1.06 71.6 0 1 -.79-.54c-6.77-9.11-10.72-17.92-15.14-27.45q-.54-1.15.52-.46 4.83 3.16 7.91 6.88z" fill="#24968d"/><path d="m200.54 177q18.4 8.19 38.94 10.78l-3.69 2.72c-4.52-4.87-8.62-.28-12.08 3l-11.91-2.08a.32.31-1.8 0 0 -.36.38q2.7 11.54 10.06 20.79a1.12.74-65.3 0 1 .13.85l-.17.81q-6.86-6.73-12.17-14.75l-.54-.79c-4-7.02-7.63-13.42-8.21-21.71z" fill="#e7beb4"/><path d="m292.29 185.5-.79 1.04q-7.51-1.85-15.25-2.25-6.94-1.08-13.54 1.21-22.58 3.75-32.64 24.04-.93 1.5-1.8.04a1.38.98-60.7 0 1 -.1-.93q.74-3.04-.25-6.28a.43.4-21.6 0 0 -.59-.23q-1.7.83-3.02-.49l11.48-11.15 3.69-2.72c14.51-9.36 34.8-14.34 51.43-7.3a.56.52 20.9 0 1 .33.67q-.34.94-1.29 1.32a.27.25 57.3 0 0 -.07.42z" fill="#3c635f"/><path d="m143.18 198.62c.36 4.68-.25 8.85.79 13.58q.55 2.49.73 5.13-8.76-18.2-8.05-38.51.01-.2.1-.02.15.29.33-.02.11-.2.16.01 2.46 10.06 5.94 19.83z" fill="#24968d"/><path d="m446.93 203.51-8.68-6.22c2.85-1.17 5.59-12.79 6.29-15.91.37-1.66.89-1 .98-.05q.42 4.61 1.02 9.18c.6 4.52.49 8.59.39 13z" fill="#24968d"/><path d="m362.01 195q-2.02 12.64-7.51 24.29-18.66 3.01-25.19 3.52-8.02.63-12.02 1.44 1.33-15.62.17-31.25l.08-.25q1.99.18 2.52.07 20.78-4.18 40.89-10.91a.73.73 84 0 1 .95.77q-.6 6.02.11 12.32z" fill="#00ba9d"/><path d="m276.25 184.29q6.45 3.58 11.71 8.71 3.47 3.84 5.08 8.75l-10.29 4.54q-4.16-5.89-9.94-7.36-2.43-.62-3.07 1.8-1.44 5.47-.78 10.02l-9.46 5.04q-2.58-5.49-3.29-11.54c-.25-6.95 1.02-14.08 6.5-18.75q6.6-2.29 13.54-1.21z" fill="#906e5a"/><path d="m276.25 184.29q7.74.4 15.25 2.25l1.54 4.21-.08 1q-2.78-.48-5 1.25-5.26-5.13-11.71-8.71z" fill="#eae1d2"/><path d="m262.71 185.5c-5.48 4.67-6.75 11.8-6.5 18.75q-12.18 4.25-23.62 10.75l-2.52-5.46q10.06-20.29 32.64-24.04z" fill="#eae1d2"/><path d="m373.5 215.04-5.08-.75a.76.65 17.1 0 0 -.73.32q-7.39 12.82-9.7 15.12-10.07 10.03-20.44 19.79 10.11-14.25 16.95-30.23 5.49-11.65 7.51-24.29l1.59-6.2a.94.92-70.1 0 1 1.3-.63c10.89 5.35 11.9 16.51 8.6 26.87z" fill="#e7beb4"/><path d="m235.79 190.5-11.48 11.15c-3.03-2.84-1.22-4.95-.6-8.15 3.46-3.28 7.56-7.87 12.08-3z" fill="#f9d3c2"/><path d="m316.85 188.45.69 4.3-.08.25-23.41 2.14a.53.52 82.4 0 1 -.57-.44l-.52-2.95.08-1c1.24-.16 2.5.28 3.6.14q10.2-1.27 20.21-2.44z" fill="#e7beb4"/><path d="m223.71 193.5c-.62 3.2-2.43 5.31.6 8.15q1.32 1.32 3.02.49a.43.4-21.6 0 1 .59.23q.99 3.24.25 6.28a1.38.98-60.7 0 0 .1.93q.87 1.46 1.8-.04l2.52 5.46q5.01 7.25 9.25 12.17c6.28 7.3 13.75 9.81 22.84 12.35a1.82 1.71 42.6 0 0 .96-.01q5.05-1.47 10.04-3.1 3.57-1.18 4.92-3.45l3.61-.46.95 1.04a1.51 1.08-10.5 0 0 .85.4c10.43 1.35 23.22-5.58 23.52-16.94.19-7.41-9.97-5.37-14.49-5.25q-.46-5.11-2-10-1.61-4.91-5.08-8.75 2.22-1.73 5-1.25l.52 2.95a.53.52 82.4 0 0 .57.44l23.41-2.14q1.16 15.63-.17 31.25-1.13 15.56-6.86 30.03-.52 1.32.74.58l3.08-1.82-2.88 5.5q-.18.33.14.17l11.45-5.96-3.28 14.2q-.12.49.26.16 9.41-8.21 17.61-17.59 10.37-9.76 20.44-19.79 2.31-2.3 9.7-15.12a.76.65 17.1 0 1 .73-.32l5.08.75q-1.08 6.06-3.49 11.69-.15.36.12.07l4.65-4.97q-5.34 14.04-15.5 25.21-4.68 4-10.28 7l-10.31 1.13a1.41.55 1.5 0 0 -.89.32l-1.59 1.76q-4.83 2.53-7.02 7.45l-7.88 8.87a1.09.5-37.2 0 0 -.31.58l-.04.35-.72.19q-.66.18-.88.37-12.91 11.54-27.89 20.27-.28.16-.67.69-.21.29-.55.52-1.07-.07-1.52.16-23.7 12.42-50.23 16.01c-3.03.41-12.42.92-18.41-.5-1.93-.45-4.58-.27-6.33-.52q-13.77-1.92-26.55-7.4c-6.27-3.94-9.75-6.82-11.77-13.68q-1.31-6.75-1.4-13.36c2.45-.23 16.68-3.26 15.67-7l.33-1.25q9.71-.3 13.22-9.15c1.18-5.03 1.5-15-2.26-19.64q-.94-4.41-4.04-7.71l.73-1.09a1.06.87-40.7 0 0 .15-.87q-1.81-5.16-6.61-7.29-2.7-.55-1.11-2.16a.85.49-41.4 0 0 .28-.82q-.18-.29-.65-.31c1.99-14.66-25.68-4.83-17.5 2-8.32 2.57-13.27 10.15-17.28 18.1q-2.17-7.73-2.49-11.81-.84-10.9-3.06-22.17 12.46-7.84 27.24-9.44 9.9 7.54 21.09 12.4 12.24 5.18 25.22 8.24 1.87.44.64-1.05-.73-.89-2.15-1.98l.17-.81a1.12.74-65.3 0 0 -.13-.85q-7.36-9.25-10.06-20.79a.32.31-1.8 0 1 .36-.38zm3.8174 49.6615a7.97 5.04-28.3 0 0 -9.4068-.6591 7.97 5.04-28.3 0 0 -4.628 8.2161 7.97 5.04-28.3 0 0 9.4068.6591 7.97 5.04-28.3 0 0 4.628-8.2161zm27.1226 25.2785q-10.42 1.52-17.4 9.02-2.09 1.26-3.27 3.35a1.01 1-42.1 0 0 -.05.9q1.4 3.4 5.42 4.7c8.52 3.58 16.95 3.92 22.33-4.89q3.54-5.77 2.65-13.03-5.29-1.08-9.68-.05z" fill="#ffece2"/><path d="m170.9 192.24c.8.11 13.36.8 11.5 2.67q-.16.16-.87.36l-4.87 1.37q-14.78 1.6-27.24 9.44l-3.77 4.11a.8.64-55 0 1 -.82.24c-1.46-.67 3-4.97 4.42-6.39q9.45-7.87 21.65-11.8z" fill="#24968d"/><path d="m282.75 206.29q.08 5.7-2.32 10.92a.98.98 23.3 0 1 -1.26.5q-5.86-2.33-10.21-6.96-.66-4.55.78-10.02.64-2.42 3.07-1.8 5.78 1.47 9.94 7.36z" fill="#fffaeb"/><path d="m209.29 199.5q5.31 8.02 12.17 14.75 1.42 1.09 2.15 1.98 1.23 1.49-.64 1.05-12.98-3.06-25.22-8.24z" fill="#49d2a6"/><path d="m293.04 201.75q1.54 4.89 2 10 .58 7.15-2.58 13.5-3.18-11.21-14.02-5.81-1.36.67-3.24 2.84-4.46.49-.95 3.76.05 3.78 2.96 6.21c-8.29-1.57-14.75-8.99-17.71-16.46l9.46-5.04q4.35 4.63 10.21 6.96a.98.98 23.3 0 0 1.26-.5q2.4-5.22 2.32-10.92z" fill="#d89f6c"/><path d="m256.21 204.25q.71 6.05 3.29 11.54c2.96 7.47 9.42 14.89 17.71 16.46l3.39.71q-1.35 2.27-4.92 3.45-4.99 1.63-10.04 3.1a1.82 1.71 42.6 0 1 -.96.01c-9.09-2.54-16.56-5.05-22.84-12.35q-4.24-4.92-9.25-12.17 11.44-6.5 23.62-10.75z" fill="#fffaeb"/><path d="m284.21 232.5q5.26-2.32 8.25-7.25 3.16-6.35 2.58-13.5c4.52-.12 14.68-2.16 14.49 5.25-.3 11.36-13.09 18.29-23.52 16.94a1.51 1.08-10.5 0 1 -.85-.4z" fill="#f9d3c2"/><path d="m189.75 219.96q-9-.77-17.5 2c-8.18-6.83 19.49-16.66 17.5-2z" fill="#f9d3c2"/><path d="m292.46 225.25q-2.99 4.93-8.25 7.25l-3.61.46-3.39-.71q-2.91-2.43-2.96-6.21 2.94-.84.95-3.76 1.88-2.17 3.24-2.84 10.84-5.4 14.02 5.81z" fill="#f0c88b"/><path d="m445.79 218.75q11.26 10.78 21.12 22.87-5.94 11.73-16.21 20.6a.67.67 59.2 0 1 -1.06-.27c-5.17-13.77-4.5-28.75-3.85-43.2z" fill="#49d2a6"/><path d="m354.5 219.29q-6.84 15.98-16.95 30.23-8.2 9.38-17.61 17.59-.38.33-.26-.16l3.28-14.2q-.18-2.7 1.09-5.98.17-.43-.07-.7a.69.48-38.6 0 0 -.82.05l-8.91 6.92-3.08 1.82q-1.26.74-.74-.58 5.73-14.47 6.86-30.03 4-.81 12.02-1.44 6.53-.51 25.19-3.52z" fill="#49d2a6"/><path d="m189.75 219.96q.47.02.65.31a.85.49-41.4 0 1 -.28.82q-1.59 1.61 1.11 2.16-.09 2.72-2.48 1.79-8.14-1-15.04 3.21c-8.89 5.83-13.69 17.82-15.42 28l-.33.75-.46-.04q-1.88-2.44-2.29-5.46-.15-2.13-.25-4.27c-.05-.87-.81-1.68-1.25-.23q-3.75.55-1.17-3 1.94-1.76 2.43-3.94c4.01-7.95 8.96-15.53 17.28-18.1q8.5-2.77 17.5-2z" fill="#3c635f"/><path d="m275.2 222.28q1.99 2.92-.95 3.76-3.51-3.27.95-3.76z" fill="#fffaeb"/><path d="m124.04 256.25-.26 19.01q-.02 1.72-1.3.55c-3.63-3.32-6.64-6.66-8.43-11.49q-4.96-13.32-6.86-27.41c-.58-4.37-2.07-9.56-2.36-14.54q7.64 18.07 19.21 33.88z" fill="#64b6b7"/><path d="m191.23 223.25q4.8 2.13 6.61 7.29a1.06.87-40.7 0 1 -.15.87l-.73 1.09q-3.42-4.5-8.21-7.46 2.39.93 2.48-1.79z" fill="#eae1d2"/><path d="m188.75 225.04q4.79 2.96 8.21 7.46 3.1 3.3 4.04 7.71-4.51 3.28-9.96 4.29l-7.62-5.65q-1.3-.96-1.36.73l-.31 9.63-7.96 4.54-2.33-5.5q-3.16-10.53 2.25-20 6.9-4.21 15.04-3.21z" fill="#906e5a"/><path d="m173.71 228.25q-5.41 9.47-2.25 20-5.67 3.01-11.54 7.51-.8-.7-1.63.49c1.73-10.18 6.53-22.17 15.42-28z" fill="#eae1d2"/><path d="m191.04 244.5-.54 9.46-1 .33-7.75-5.08.31-9.63q.06-1.69 1.36-.73z" fill="#fffaeb"/><path d="m201 240.21c3.76 4.64 3.44 14.61 2.26 19.64q-.75-1.45-1.52-2.74c-2.15-3.57-7.56-3.94-11.24-3.15l.54-9.46q5.45-1.01 9.96-4.29z" fill="#d89f6c"/><ellipse fill="#f9d3c2" rx="7.97" ry="5.04" transform="matrix(.88047735 -.47408821 .47408821 .88047735 220.51 246.94)"/><path d="m322.96 252.75-11.45 5.96q-.32.16-.14-.17l2.88-5.5 8.91-6.92a.69.48-38.6 0 1 .82-.05q.24.27.07.7-1.27 3.28-1.09 5.98z" fill="#e7beb4"/><path d="m155.21 251.5q-1.25-2.07-1.5-4.5c.44-1.45 1.2-.64 1.25.23q.1 2.14.25 4.27z" fill="#e7beb4"/><path d="m171.46 248.25 2.33 5.5q4.5 10.01 14.46 14.54l1.79.71-.33 1.25c-4.5-.05-9.01.23-13.13-1.81q-9.5-4.71-16.66-12.68 5.87-4.5 11.54-7.51z" fill="#fffaeb"/><path d="m181.75 249.21 7.75 5.08-3.5 4.5q-1.92-.33-2.93 1.1a1 .95 53.3 0 0 -.11.9q.65 1.8 2.54 2.5.92 2.72 2.75 5-9.96-4.53-14.46-14.54z" fill="#d89f6c"/><path d="m203.26 259.85q-3.51 8.85-13.22 9.15l-1.79-.71q-1.83-2.28-2.75-5 3.05-2.1.5-4.5l3.5-4.5 1-.33c3.68-.79 9.09-.42 11.24 3.15q.77 1.29 1.52 2.74z" fill="#f0c88b"/><path d="m349 254.04q-6.74 4.04-14.21 6.46.25-1.81 1.42-3.25l1.59-1.76a1.41.55 1.5 0 1 .89-.32z" fill="#64b6b7"/><path d="m159.92 255.76q7.16 7.97 16.66 12.68c4.12 2.04 8.63 1.76 13.13 1.81 1.01 3.74-13.22 6.77-15.67 7 0-3.57-.24-7.01-3.41-9.29q-3.61-2.58-7.61-5.15l-5.06-5.81.33-.75q.83-1.19 1.63-.49z" fill="#f9d3c2"/><path d="m157.5 256.96.46.04 5.06 5.81q2.19 10.48 6.71 20.21.43.94-.55.61-9.99-3.41-19.14-8.88l-10.54-6.46c3.15-1.78 16.86-8.74 18-11.33z" fill="#49d2a6"/><path d="m336.21 257.25q-1.17 1.44-1.42 3.25l-5.6 4.2q2.19-4.92 7.02-7.45z" fill="#e7beb4"/><path d="m186 258.79q2.55 2.4-.5 4.5-1.89-.7-2.54-2.5a1 .95 53.3 0 1 .11-.9q1.01-1.43 2.93-1.1z" fill="#fffaeb"/><path d="m130.54 261.75 8.96 6.54 10.54 6.46q-1.22 2.25-1.33 3.91l-1.5 4.09c-6.65-3.85-13.58-14.04-17.17-19z" fill="#24968d"/><path d="m163.02 262.81q4 2.57 7.61 5.15c3.17 2.28 3.41 5.72 3.41 9.29q.09 6.61 1.4 13.36-13.69-5.27-26.73-11.95.11-1.66 1.33-3.91 9.15 5.47 19.14 8.88.98.33.55-.61-4.52-9.73-6.71-20.21z" fill="#65abb7"/><path d="m130.04 263.75c3.59 4.96 10.52 15.15 17.17 19-.63 2.88-4.28 15.15-2.71 16.96l-1.92 5.14q-4.18-.01-7.49 1.72a.92.91 69.7 0 1 -1.31-.61q-2.15-9.3-5.73-18.05-1.22-12.18 1.99-24.16z" fill="#00ba9d"/><path d="m264.33 268.49c-.18 1.83-.32 2.69-2.29 3.05-7.84 1.45-16.16 9.41-22.69 14.87q-4.02-1.3-5.42-4.7a1.01 1-42.1 0 1 .05-.9q1.18-2.09 3.27-3.35l.75 1.11a1.11.87-12.1 0 0 .82.4q11.8.42 15.83-10.53 4.39-1.03 9.68.05z" fill="#b4797b"/><path d="m254.65 268.44q-4.03 10.95-15.83 10.53a1.11.87-12.1 0 1 -.82-.4l-.75-1.11q6.98-7.5 17.4-9.02z" fill="#fffaeb"/><path d="m264.33 268.49q.89 7.26-2.65 13.03c-5.38 8.81-13.81 8.47-22.33 4.89 6.53-5.46 14.85-13.42 22.69-14.87 1.97-.36 2.11-1.22 2.29-3.05z" fill="#dea69d"/><path d="m320.96 274.5q1.28 3.73 3.26 6.59 4.69 7.44 4.97 15.84c-.45 5.74 1.59 11.58.52 17.57q-.56.46-1.05.11a.86.65-67.3 0 1 -.22-.84q.92-3.6.11-7.05c-.83-3.57-.12-7.74-5.8-7.54q-8.79.31-14.4 6.66-1.49 1.69-1.11 3.91 1.24 7.21 6.01 12.46l-1.25.58-4.07-5.2-7.68-13.63q-.22-2.14-2.21-2.71-2.91-3.97-7.79-4.71.34-.23.55-.52.39-.53.67-.69 14.98-8.73 27.89-20.27.22-.19.88-.37z" fill="#e7beb4"/><path d="m500 277.06v32.25c-2.62 2-4.81 3.7-8.34 3.7q-5.76-.01-11.53-.02c-3.01-.01-5.51.79-8.33 1.59a.73.59 62 0 1 -.7-.3l-1.77-2.44q.06-.08.33-.1a.27.27-7 0 0 .26-.33l-3.88-20.16.04-2.23a1.14.5 83.9 0 1 .26-.82c1.76-1.4 8.53-.17 10.66-.18q.4 0 .92-.28l3.58-1.95 3.06 4.42a1.53 1.5 57.3 0 0 2.01.46l3.81-2.27a1.3 1.23-27 0 0 .56-1.58l-1.68-3.94q5.14-3.41 10.74-5.82z" fill="#e64f61"/><path d="m148.71 278.66q13.04 6.68 26.73 11.95c2.02 6.86 5.5 9.74 11.77 13.68l-.15 12.27a1.46 1.37-26.5 0 1 -.33.9q-1.83 2.22-4.19.42-1.81-1.38-1.36.85.94 4.73.82 9.53-.07 2.65-2.45 1.46-20.87-10.53-35.05-30.01c-1.57-1.81 2.08-14.08 2.71-16.96z" fill="#64b6b7"/><path d="m381.5 282.54-1.2 8.97a1.32.88 83.7 0 1 -.42.81q-1.37.99-3.84.08a.93.89 16.3 0 1 -.59-1.02l1.09-5.38a.9.86-79.9 0 0 -.7-1.06q-8.6-1.36-17.34-2.51c-5.49-.72-8.06 1.16-12.29 4.26q-1.72 1.26-4.46.02l-2-1.04a.85.59 21.8 0 1 -.48-.72q.07-.47.76-.41 4.78-.37 9.96-3.55c3.97-2.45 7.62-1.79 13.11-1.14q9.24 1.1 18.4 2.69z" fill="#c1edec"/><path d="m340.03 284.54q-.69-.06-.76.41a.85.59 21.8 0 0 .48.72l2 1.04q-.25.12-.45.35a.55.47 40 0 0 .12.73c.91.74 7.2 6.25 1.51 5.22q-7.87-1.42-13.74 3.92-.28-8.4-4.97-15.84z" fill="#64b6b7"/><path d="m381.5 282.54 14.4 1.09q-1.98 11.29-2.86 22.62l-1.79 11.71-.29 1.54c-4.18 1.08-7.48-.16-11.35-.62-.82-.1-5.51-1.28-5.92-.67a.95.5 52.7 0 0 .14.85l1.63 2.69 5.21 8.93q-.15.17-.17.28-23.24 9.73-41.18 27.37a4.42 4.41 17.2 0 1 -2.29 1.2q-12.08 2.34-22.78 9.76c-2.08-1.7-2.06-4.64-3.07-6.66q-1.98-5.98-1.86-12.79a1.18 1.17-20.8 0 1 .38-.84q7.39-6.72 15.42-10.43 3.14-1.45 4.53 1.59l3.97 8.68a.98.51 73.7 0 0 .52.54q.27.06.43-.16a1.13.6 62 0 0 0-.93l-3.76-10.36q-.78-2.15 1.18-3.37 10.77-6.71 23.63-8.67c.38-.06.53-.1.55-.47a.63.4 3.5 0 0 -.6-.43c-3.26-.22-6.22.97-9.13 1.07-7.35.23-10.68 1.13-16.04 6.11l-.19-1.17-.5-16v-.5c1.07-5.99-.97-11.83-.52-17.57q5.87-5.34 13.74-3.92c5.69 1.03-.6-4.48-1.51-5.22a.55.47 40 0 1 -.12-.73q.2-.23.45-.35 2.74 1.24 4.46-.02c4.23-3.1 6.8-4.98 12.29-4.26q8.74 1.15 17.34 2.51a.9.86-79.9 0 1 .7 1.06l-1.09 5.38a.93.89 16.3 0 0 .59 1.02q2.47.91 3.84-.08a1.32.88 83.7 0 0 .42-.81zm-34.95 11.97c5.42 9.6 11.5 18.07 14.81 29.26a1.15.93 89.7 0 0 .58.71c2.3.95-.2-6.01-.85-7.74-3.09-8.11-8.57-15.88-14-22.59-1.18-1.46-.78-.05-.54.36zm20.79 33.62q-8.42 3.5-15.63 9.15a.99.84-23.7 0 0 -.39.8q.1 1.27 1.2 1.76a.91.75-49.1 0 0 .85-.14q7.08-5.37 14.93-9.44a.89.78-15.5 0 0 .48-.73q-.02-.83-.56-1.31a.92.71-31.7 0 0 -.88-.09z" fill="#00ba9d"/><path d="m489.26 282.88 1.68 3.94a1.3 1.23-27 0 1 -.56 1.58l-3.81 2.27a1.53 1.5 57.3 0 1 -2.01-.46l-3.06-4.42z" fill="#ffe2e8"/><path d="m395.9 283.63q4.05-.21 5.1 2.33-1.22.98-1.29 2.54-1.71 2.09-.75 4.5l.33 2.25q.18 3.22-2.13 4.97a.5.49-35.7 0 0 -.12.68q1.72 2.53.67 5.6l-4.67-.25q.88-11.33 2.86-22.62z" fill="#d9f5f0"/><path d="m401 285.96q4.26.79 8.56 1.01c4.33.23 8.13.91 12.42 1.32q-3.09 4.08-1.17 6.68c2.16 2.91 7.59 2.88 11.19 2.71q7.28-.37 8.04-7.09a.67.57-87.3 0 1 .54-.58l.92-.05c7.28.1 14.4 1.49 21.75 1.58q1.13-.02 1.98.61a.98.8-71.3 0 1 .31.83q-.77 6.73.34 13.42c.29 1.74-.24 2.82-1.24 4.11a1.4 1.1 9.1 0 1 -.81.45q-2.11.4-3.58 2-5.93.27-11.83.96c-6.47.76-12.56.29-19.42-.68-6.11-.86-11.88.39-17.75.72q-3.45-1.57-7.29-1.87a1.2 1.09-15.3 0 1 -.81-.41q-2.57-3.15-3.03-7.18-.05-.48-.34-.91c-1.97-3.01 1.01-4.9-.49-8.34l-.33-2.25.75-4.5q.07-1.56 1.29-2.54z" fill="#ffece2"/><path d="m128.05 287.91q3.58 8.75 5.73 18.05a.92.91 69.7 0 0 1.31.61q3.31-1.73 7.49-1.72-2.7 9.22-2.62 11.64.17 5.15-.36 10.27-.06.5-.37.11c-9.01-11.28-11.64-24.28-11.18-38.96z" fill="#49d2a6"/><path d="m421.98 288.29q9.58 1.44 19.52 1.67l-.92.05a.67.57-87.3 0 0 -.54.58q-.76 6.72-8.04 7.09c-3.6.17-9.03.2-11.19-2.71q-1.92-2.6 1.17-6.68z" fill="#f9d3c2"/><path d="m399.71 288.5-.75 4.5q-.96-2.41.75-4.5z" fill="#e7beb4"/><path d="m466.04 291.25 3.88 20.16a.27.27-7 0 1 -.26.33q-.27.02-.33.1l-9.08 1.12q1.47-1.6 3.58-2a1.4 1.1 9.1 0 0 .81-.45c1-1.29 1.53-2.37 1.24-4.11q-1.11-6.69-.34-13.42a.98.8-71.3 0 0 -.31-.83q-.85-.63-1.98-.61z" fill="#e7beb4"/><path d="m346.55 294.51c-.24-.41-.64-1.82.54-.36 5.43 6.71 10.91 14.48 14 22.59.65 1.73 3.15 8.69.85 7.74a1.15.93 89.7 0 1 -.58-.71c-3.31-11.19-9.39-19.66-14.81-29.26z" fill="#3f9692"/><path d="m399.29 295.25c1.5 3.44-1.48 5.33.49 8.34q.29.43.34.91.46 4.03 3.03 7.18a1.2 1.09-15.3 0 0 .81.41q3.84.3 7.29 1.87l-14 .08-1.1-3.81a1.35 1.01 56.9 0 1 .06-.94l1.5-2.79q1.05-3.07-.67-5.6a.5.49-35.7 0 1 .12-.68q2.31-1.75 2.13-4.97z" fill="#e7beb4"/><path d="m329.71 314.5v.5q-1.05-.08-1.64.6a1.49.72-59.9 0 1 -.77.52c-1.83.27-4.28-.53-5.31 1.82a.86.81-80.3 0 1 -.67.51q-2.6.26-4.58 2.33-1.37 1.2-3.49 1.43-4.77-5.25-6.01-12.46-.38-2.22 1.11-3.91 5.61-6.35 14.4-6.66c5.68-.2 4.97 3.97 5.8 7.54q.81 3.45-.11 7.05a.86.65-67.3 0 0 .22.84q.49.35 1.05-.11z" fill="#ffece2"/><path d="m298.04 301.25q1.99.57 2.21 2.71-.93 2.38.25 4.75-1.82 2.33-4.46 3.54-.37-1.33.32-2.22a.82.49-47.2 0 0 .16-.78q-.16-.25-.44-.3 1.45-3.66 1.96-7.7z" fill="#64b6b7"/><path d="m300.25 303.96 7.68 13.63q-4.76-3.55-7.43-8.88-1.18-2.37-.25-4.75z" fill="#3f9692"/><path d="m393.04 306.25 4.67.25-1.5 2.79a1.35 1.01 56.9 0 0 -.06.94l1.1 3.81q.61 1.89-.3 3.48a.93.73 10.4 0 1 -.75.39l-4.95.05z" fill="#c1edec"/><path d="m300.5 308.71q2.67 5.33 7.43 8.88l4.07 5.2q5.96 7.83 14.25 13.17-9.22 1.38-15.79 7.41c-3.78 3.47-6.5 8.89-9.23 13.6q-1.09 1.89-1.5-.25-2.62-13.74-3.6-27.95-.05-.64-.42-.24-.17.17-.2.46-2.1 17.79-1.05 34.01-8.79-4.27-16.76-9.96-.72-.52-1.41-.04l-1.5-2.84a1.08.74 50 0 1 -.08-.86q2.29-4.79 5.76-9.04l6.53 2.3a.73.57 26.8 0 0 .76-.15q3.19-4.03-1.68-5.4a1.63 1.63 16.8 0 1 -1.11-2.07q1.79-5.59 3.04-12.19c.89-4.74 5.17-7.11 8.03-10.5q2.64-1.21 4.46-3.54z" fill="#00ba9d"/><path d="m296.08 308.95q.28.05.44.3a.82.49-47.2 0 1 -.16.78q-.69.89-.32 2.22c-2.86 3.39-7.14 5.76-8.03 10.5q-1.25 6.6-3.04 12.19a1.63 1.63 16.8 0 0 1.11 2.07q4.87 1.37 1.68 5.4a.73.57 26.8 0 1 -.76.15l-6.53-2.3q3.68-10.46 7.24-21.02c1.32-3.93 5.46-7.44 8.37-10.29z" fill="#c1edec"/><path d="m221 321.96c-1.56 3.03-5.03 9.52-8.8 3.45a.9.62 65.8 0 0 -.75-.45c-.3.04-1.45 4.4-4.4 5.21a.99.88 55.5 0 1 -.86-.21q-2.2-1.9-4.9-2.71c-2.8-4.39-1.17-10.81 5.08-8.28 1.49.6 2.47 2.13 3.58 3.32q1.05 1.13 1.05-.53l.02-6.21a1.06 1.03 71.3 0 1 .39-.82c4.75-3.72 8.52 3.32 9.59 7.23z" fill="#ffece2"/><path d="m329.71 315 .5 16-3.04 1.74a1.09.88-44.7 0 1 -.89.09q-6.51-2.68-10.93-8.17c-1.63-2.03 1.02-1.85 1.88-.93q7.26 7.74-.49-2.95 1.98-2.07 4.58-2.33a.86.81-80.3 0 0 .67-.51c1.03-2.35 3.48-1.55 5.31-1.82a1.49.72-59.9 0 0 .77-.52q.59-.68 1.64-.6z" fill="#d9f9f4"/><path d="m390.96 319.5q.12 2.26-1.14 4.15a.62.62 27.8 0 1 -.75.23c-1.08-.43-5.01-2.47-4.83-.68l-8.78-1.45-1.63-2.69a.95.5 52.7 0 1 -.14-.85c.41-.61 5.1.57 5.92.67 3.87.46 7.17 1.7 11.35.62z" fill="#3f9692"/><path d="m316.74 320.78q7.75 10.69.49 2.95c-.86-.92-3.51-1.1-1.88.93q4.42 5.49 10.93 8.17a1.09.88-44.7 0 0 .89-.09l3.04-1.74.19 1.17-.65 4.02a.82.7 89.8 0 1 -.54.64q-1.63.37-2.96-.87-8.29-5.34-14.25-13.17l1.25-.58q2.12-.23 3.49-1.43z" fill="#c1edec"/><path d="m384.24 323.2q2.31 2.27 3.97 5.55l-7.54 1.93-5.21-8.93z" fill="#64b6b7"/><path d="m221 321.96q1.76 3.56 2.23 7.56.37 3.22 3.75 1.69l3.23-1.46c-1.03 3.74-7.68 6.09-8.19.17a.92.91 77.8 0 0 -1.22-.79q-2.78.98-5.17 2.87c-3.28 2.59-6.5 2.89-9.44 6.29a1.1.98 62.4 0 0 -.22.87q.76 3.97-2.45 6.11-.42.28-.38-.23.29-4.58-3.64-6.49a.5.43 29.2 0 1 -.24-.66c.6-.92 2.5 1.85 4.46-.03a1.21 1.06 70.3 0 0 .34-.86q-.04-5.19-3.06-9.46l.29-.29q2.7.81 4.9 2.71a.99.88 55.5 0 0 .86.21c2.95-.81 4.1-5.17 4.4-5.21a.9.62 65.8 0 1 .75.45c3.77 6.07 7.24-.42 8.8-3.45z" fill="#f9d3c2"/><path d="m311.18 362.63q-2.18 2.72-2.49 6.07-.15 1.6-1.24.34-.86-1-1.78-.78l-11.21-5.26q-1.05-16.22 1.05-34.01.03-.29.2-.46.37-.4.42.24.98 14.21 3.6 27.95.41 2.14 1.5.25c2.73-4.71 5.45-10.13 9.23-13.6q6.57-6.03 15.79-7.41 1.33 1.24 2.96.87a.82.7 89.8 0 0 .54-.64l.65-4.02c5.36-4.98 8.69-5.88 16.04-6.11 2.91-.1 5.87-1.29 9.13-1.07a.63.4 3.5 0 1 .6.43c-.02.37-.17.41-.55.47q-12.86 1.96-23.63 8.67-1.96 1.22-1.18 3.37l3.76 10.36a1.13.6 62 0 1 0 .93q-.16.22-.43.16a.98.51 73.7 0 1 -.52-.54l-3.97-8.68q-1.39-3.04-4.53-1.59-8.03 3.71-15.42 10.43a1.18 1.17-20.8 0 0 -.38.84q-.12 6.81 1.86 12.79z" fill="#3f9692"/><path d="m201 327.54q3.02 4.27 3.06 9.46a1.21 1.06 70.3 0 1 -.34.86c-1.96 1.88-3.86-.89-4.46.03a.5.43 29.2 0 0 .24.66q3.93 1.91 3.64 6.49-.04.51.38.23 3.21-2.14 2.45-6.11a1.1.98 62.4 0 1 .22-.87c2.94-3.4 6.16-3.7 9.44-6.29q2.39-1.89 5.17-2.87a.92.91 77.8 0 1 1.22.79c.51 5.92 7.16 3.57 8.19-.17q3.8-2.4 6.34 1.1a1.29 1.26-60.1 0 1 .23.9q-.32 3.04-2.43 5.19-1.11 1.14-1.18 2.73-.32 7.17-4.92 12.62-5.82.59-8.06 5.9-.84 1.98 1.06 3.1l-7.46 7.71q-7.12-8.3-12.4-17.87c-1.91-3.45-9.95-9.39-3.82-12.92a.51.49-29.2 0 0 .21-.67c-1.07-2.03-3.27-4.66-3.48-6.57-.37-3.34 4.19-3.97 6.7-3.43zm10.52 22.57q2.83 1.73 5.47 1.4 2.17-.28 2.94-2.31c.9-2.36 4.01-9.86.99-11.4a1.29 1.2-38.1 0 0 -.94-.08q-6.71 1.99-9.68 8.35-1.2 2.57 1.22 4.04z" fill="#ffece2"/><path d="m368.22 328.22q.54.48.56 1.31a.89.78-15.5 0 1 -.48.73q-7.85 4.07-14.93 9.44a.91.75-49.1 0 1 -.85.14q-1.1-.49-1.2-1.76a.99.84-23.7 0 1 .39-.8q7.21-5.65 15.63-9.15a.92.71-31.7 0 1 .88.09z" fill="#d9f9f4"/><path d="m388.21 328.75 9.17 10.42-10.51-5.96a.41.39-66.6 0 0 -.58.24c-1.45 5-.86 9.08-1 13.8q-.39-8.75-4.79-16.29.02-.11.17-.28z" fill="#c1edec"/><path d="m380.5 330.96q4.4 7.54 4.79 16.29l.75 29.5q.19.64.05 1.27a.6.54 9.9 0 1 -.65.41c-9.69-1.23-19.23-3.22-28.94-4.39l-4.71-.04-4.7-5.93a.43.38 46.6 0 0 -.63-.06c-1.67 1.95 2.18 8.34 3.33 10.24l-3.03 18.26a.84.82-70.2 0 1 -1.24.6l-9.76-5.91c-5.92-5.62-17.47-13.06-21.51-21.91q10.7-7.42 22.78-9.76a4.42 4.41 17.2 0 0 2.29-1.2q17.94-17.64 41.18-27.37z" fill="#d9f9f4"/><path d="m397.38 339.17q6.51 5.73 14.65 9.28-3.09-.39-5.96-1.45c-5.76-2.13-9.64-2.9-14.66.67a1.81 1.81 31.1 0 0 -.75 1.25q-1.62 12.41-2.9 24.82-.15 1.49-1.72 3.01l-.75-29.5c.14-4.72-.45-8.8 1-13.8a.41.39-66.6 0 1 .58-.24z" fill="#4faba6"/><path d="m211.52 350.11q-2.42-1.47-1.22-4.04 2.97-6.36 9.68-8.35a1.29 1.2-38.1 0 1 .94.08c3.02 1.54-.09 9.04-.99 11.4q-.77 2.03-2.94 2.31-2.64.33-5.47-1.4z" fill="#f9d3c2"/><path d="m412.03 348.45c5.42 2.85 9.6 4.03 16.15 4.15q15.46.29 30.8 1.94c4.66.5 10.08.45 15.11 1.1 2.9.37 7.08.05 10.66 1.4l2.29 6.96q2.69 8.56 3.88 17.46l-2.17.33c-2.24-.4-27.04-3.4-26.25-1.31a.87.65-2.5 0 0 .66.45q12.91 1.73 25.55 4.82l.33 1.75q.86 8.22.96 22.25.03 4.27-3.75 2.79-12.6-1.69-24.71-5.53a.62.42 29.4 0 0 -.5.04q-.12.09-.19.21a.63.42 27.2 0 0 .37.67q11.71 6.02 24.16 10.34-.5 10.33-4.92 18.98-2.11.03-4.25-.96c-7.59-3.9-15.54-5.63-23.56-10.75a1.02.72 42.9 0 0 -.89-.12c-2.09 1.09 13.97 11.32 15.34 12.07 2.23 1.22 3.72 2.74 5.69 4.26q-5.65 12.37-13.08 23.75-1.79.99-2.24-1.07-8.42-7.38-17.21-14.41-.98-.78-.29.34 5.71 9.32 13.07 17.39c-3.18 3.79-15.17 15.61-20.21 15.06q-2.13-.23-3.24-2.41-8.84-9.1-16.61-22.12-.44-.73-.81-.21a1.07.75 56.4 0 0 -.02.91q5.15 12.44 12.39 23.77-6.81 4.32-14.43 2.51-15.83-13.4-24.09-23.53-7.05-8.65-37-50.59.78-2.79-.96-4.84a1.28 1.19 27.1 0 1 -.31-.86c.14-3.1-.79-5.13.09-8.14q3.5-11.96 8.66-23.26c9.71 1.17 19.25 3.16 28.94 4.39a.6.54 9.9 0 0 .65-.41q.14-.63-.05-1.27 1.57-1.52 1.72-3.01 1.28-12.41 2.9-24.82a1.81 1.81-74.8 0 1 .75-1.25c5.02-3.57 8.9-2.8 14.66-.67q2.87 1.06 5.96 1.45z" fill="#00ba9d"/><path d="m228.25 352.29q-1.02 1.74-1.21 3.71l-5.29 4.96-.5.33q-1.9-1.12-1.06-3.1 2.24-5.31 8.06-5.9z" fill="#f9d3c2"/><path d="m294.46 363 11.21 5.26q-1.03 3.33-3.38 4.99-1.81-2.92-4.67-4.8a.39.25-76 0 1 -.11-.32q.02-.11-.02-.23a.6.44-11 0 0 -.59-.28q-4.44.53-7.53-2.61a1.39 1.38 70.2 0 0 -.84-.4q-4.97-.53-7.17-4.75a1.32 1.1 80.9 0 0 -.69-.6q-2.38-.77-4.63-.01c-2.04-2.09-.26-3.96.25-6.25q.69-.48 1.41.04 7.97 5.69 16.76 9.96z" fill="#d9f5f0"/><path d="m245.54 366.25-4.14 7.14q-9.72-4.89-18.58-11.02a1.71.72 78.4 0 1 -.53-.77q-.17-.41-.54-.64l5.29-4.96q.9-.19 1.74-.97a.63.59-48.6 0 1 .76-.07q4.72 3.2 9.59 6.08c2.33 1.37 8.64.32 6.41 5.21z" fill="#c65c76"/><path d="m484.75 357.04 5.82.1a1.17.93 66.7 0 1 .82.44q2.24 2.76 2.34 6.73l-6.69-.31z" fill="#c1edec"/><path d="m302.29 373.25q-6.23 15.39-17.05 27.87-1.35-1.39-1.55-2.54-.31-1.72-3.67-1.52-5.31.3-8.02 4.73-20.57-5.58-38-17.83l7.4-10.57 4.14-7.14q11.71 4.72 24.5 4.21c.92.34 8.69 3 8.36 2.06a.85.69 4.8 0 0 -.47-.45q-3.66-1.36-4.91-5.42l3.02-7.4q2.25-.76 4.63.01a1.32 1.1 80.9 0 1 .69.6q2.2 4.22 7.17 4.75a1.39 1.38 70.2 0 1 .84.4q3.09 3.14 7.53 2.61a.6.44-11 0 1 .59.28q.04.12.02.23a.39.25-76 0 0 .11.32q2.86 1.88 4.67 4.8z" fill="#ffece2"/><path d="m221.75 360.96q.37.23.54.64a1.71.72 78.4 0 0 .53.77q8.86 6.13 18.58 11.02l-7.4 10.57c-.95 1.29-2.05 1.64-3.5.7q-4.25-2.74-15.42-11.02-2.8-2.07-1.29-4.64l7.46-7.71z" fill="#e64f61"/><path d="m493.73 364.31q2.48 7.96 3.27 15.44.32 3.07-3.12 2.38-2.26.55-2.96-.67-1.19-8.9-3.88-17.46z" fill="#d9f9f4"/><path d="m273.02 366.65q1.25 4.06 4.91 5.42a.85.69 4.8 0 1 .47.45c.33.94-7.44-1.72-8.36-2.06z" fill="#e7beb4"/><path d="m351.79 374-2 4.25c-1.15-1.9-5-8.29-3.33-10.24a.43.38 46.6 0 1 .63.06z" fill="#c1edec"/><path d="m351.79 374 4.71.04q-5.16 11.3-8.66 23.26c-.88 3.01.05 5.04-.09 8.14a1.28 1.19 27.1 0 0 .31.86q1.74 2.05.96 4.84-7.07-9.6-13.26-19.94l9.76 5.91a.84.82-70.2 0 0 1.24-.6l3.03-18.26z" fill="#4faba6"/><path d="m488.75 381.79-.04 3.96q-12.64-3.09-25.55-4.82a.87.65-2.5 0 1 -.66-.45c-.79-2.09 24.01.91 26.25 1.31z" fill="#4aaca6"/><path d="m490.92 381.46q.7 1.22 2.96.67l.33 5.62c-1.13.26-4.79-.57-5.17-.25l-.33-1.75.04-3.96z" fill="#c1edec"/><path d="m494.21 387.75 1.04 6.54q-.41 6.97-.28 14.08c.03 1.77-.57 4.21-2.92 2.92a.67.67 16.7 0 0 -.99.53q-.89 11.2-1.33 20.67-.1 2.22-1.67 4.34a1.29 1.11 10.7 0 1 -.8.46q-2.07.34-3.55 1.71l-2.96-.96-.29-.79q4.42-8.65 4.92-18.98l.87-5.73q3.78 1.48 3.75-2.79-.1-14.03-.96-22.25c.38-.32 4.04.51 5.17.25z" fill="#d9f9f4"/><path d="m495.25 394.29 4.75 2.02-.02 26.73q-6.74 8.27-11.99 17.51l-4.28-1.55q1.48-1.37 3.55-1.71a1.29 1.11 10.7 0 0 .8-.46q1.57-2.12 1.67-4.34.44-9.47 1.33-20.67a.67.67 16.7 0 1 .99-.53c2.35 1.29 2.95-1.15 2.92-2.92q-.13-7.11.28-14.08z" fill="#e7beb4"/><path d="m285.24 401.12q-6.8 2.99-13.24.67 2.71-4.43 8.02-4.73 3.36-.2 3.67 1.52.2 1.15 1.55 2.54z" fill="#f9d3c2"/><path d="m486.25 412.54-.87 5.73q-12.45-4.32-24.16-10.34a.63.42 27.2 0 1 -.37-.67q.07-.12.19-.21a.62.42 29.4 0 1 .5-.04q12.11 3.84 24.71 5.53z" fill="#4aaca6"/><path d="m499.98 423.04.02 22.77-12.01-5.26q5.25-9.24 11.99-17.51z" fill="#ffece2"/><path d="m476.21 436.29q-2.18 2.16-2.96 4.92l-.46.54c-1.97-1.52-3.46-3.04-5.69-4.26-1.37-.75-17.43-10.98-15.34-12.07a1.02.72 42.9 0 1 .89.12c8.02 5.12 15.97 6.85 23.56 10.75z" fill="#4aaca6"/><path d="m476.21 436.29q2.14.99 4.25.96l.29.79-1.96 5.71-5.54-2.54q.78-2.76 2.96-4.92z" fill="#c1edec"/><path d="m473.25 441.21 5.54 2.54-1.5 6.5-8.92 17.37q-.94 1.83-2.65 1.3l-3.97-1.21-2.04-2.21q7.43-11.38 13.08-23.75z" fill="#d9f9f4"/><path d="m457.47 464.43q-2.93.85-3.97 3.03l-.46.29q-7.36-8.07-13.07-17.39-.69-1.12.29-.34 8.79 7.03 17.21 14.41z" fill="#4aaca6"/><path d="m477.29 450.25 13 6.75q-.99 5.01-3.5 9.43c-4.56 3.34-8.75 6.71-13.57 9.83q-7.22 4.66-14.11 9.97-6.03-2.31-11.65-5.98 5-5.06 10.79-9.21l3.5-3.33 3.97 1.21q1.71.53 2.65-1.3z" fill="#e7beb4"/><path d="m490.29 457 5 2.25-3.65 9.72a1.63 1.01-15.6 0 1 -.64.7c-4.25 2.59.73 3.21.77 4.79a.74.48-8.8 0 1 -.6.54l-5.76 1.26a.54.53 78.2 0 0 -.41.64q.27 1.28 1.1 2.46a.71.71 43.8 0 1 .02.81l-3.39 5.14a1.69 1.39 1.6 0 1 -.75.58l-5.44 2.08a.89.81-9.3 0 0 -.55.69q-.11 1.25 1.22 1.8a.81.64 14 0 1 .51.66q-.03 1.23-1.22 1.67l-6.29-2.29q11.32-10.02 16.58-24.07 2.51-4.42 3.5-9.43z" fill="#dffbf6"/><path d="m429.59 480.4-5.05 2.35q-7.24-11.33-12.39-23.77a1.07.75 56.4 0 1 .02-.91q.37-.52.81.21 7.77 13.02 16.61 22.12z" fill="#4aaca6"/><path d="m495.29 459.25 1.21.54c-.81 3.43-2.07 9.19-4.95 11.47a.38.37-44.9 0 0 -.01.59q1.86 1.46 2.6 3.66-3.26 1.42-6.63 1.75a.32.3 73.4 0 0 -.23.46l.67 1.36a1.04.86-46.7 0 1 -.06.9c-1.92 3.4-5.67 7.15-4.18 11.19q.75 2.02-1.33 1.45-2.91-.79-3.68 1.48l-2.2-1.31q1.19-.44 1.22-1.67a.81.64 14 0 0 -.51-.66q-1.33-.55-1.22-1.8a.89.81-9.3 0 1 .55-.69l5.44-2.08a1.69 1.39 1.6 0 0 .75-.58l3.39-5.14a.71.71 43.8 0 0 -.02-.81q-.83-1.18-1.1-2.46a.54.53 78.2 0 1 .41-.64l5.76-1.26a.74.48-8.8 0 0 .6-.54c-.04-1.58-5.02-2.2-.77-4.79a1.63 1.01-15.6 0 0 .64-.7z" fill="#00ba9d"/><path d="m496.5 459.79 3.5 1.52v15l-5.86-.8q-.74-2.2-2.6-3.66a.38.37-44.9 0 1 .01-.59c2.88-2.28 4.14-8.04 4.95-11.47z" fill="#d9f9f4"/><path d="m457.47 464.43q.45 2.06 2.24 1.07l2.04 2.21-3.5 3.33-4.75-3.58q1.04-2.18 3.97-3.03z" fill="#c1edec"/><path d="m486.79 466.43q-5.26 14.05-16.58 24.07-5.63-1.62-11.1-4.27 6.89-5.31 14.11-9.97c4.82-3.12 9.01-6.49 13.57-9.83z" fill="#ffece2"/><path d="m453.5 467.46 4.75 3.58q-5.79 4.15-10.79 9.21c-3.99 3.02-7.2 6.67-12.42 7.65a1.39 1.2-31.7 0 1 -.93-.15q-1.41-.88-1.98-2.33a.87.82-21.5 0 0 -1.12-.45l-14.69 5.84q-1.87.74-3.21-1.32l-1.34-2.08a1.09.72-9.8 0 0 -.82-.36q-1.39-.03-.84-1.79 7.62 1.81 14.43-2.51l5.05-2.35q1.11 2.18 3.24 2.41c5.04.55 17.03-11.27 20.21-15.06z" fill="#d9f9f4"/><path d="m500 476.31v23.69l-.8-.02q-10.06-3.58-20.5-5.88.77-2.27 3.68-1.48 2.08.57 1.33-1.45c-1.49-4.04 2.26-7.79 4.18-11.19a1.04.86-46.7 0 0 .06-.9l-.67-1.36a.32.3 73.4 0 1 .23-.46q3.37-.33 6.63-1.75z" fill="#ebfffb"/></svg>